<?xml version="1.0" encoding="utf-8"?><!-- Generator: Adobe Illustrator 27.0.0, SVG Export Plug-In . SVG Version: 6.00 Build 0)  -->
<svg version="1.1" id="Layer_1" xmlns="http://www.w3.org/2000/svg" x="0px" y="0px"
	viewBox="0 0 36 69" style="enable-background:new 0 0 36 69;" xml:space="preserve">
<style type="text/css">
	.st0{fill-rule:evenodd;clip-rule:evenodd;fill:#DADADA;}
</style>
	<g id="Chevron-icon">
	<path id="Vector" class="st0" d="M32.8,0c-0.8,0-1.6,0.4-2.1,1L0.9,31.8C0.3,32.3,0,33.1,0,33.9s0.3,1.6,0.9,2.1l29.8,30.8
		c0.3,0.3,0.6,0.5,1,0.7s0.8,0.3,1.2,0.3c0.4,0,0.8-0.1,1.2-0.2c0.4-0.1,0.7-0.4,1-0.7c0.3-0.3,0.5-0.6,0.7-1
		c0.2-0.4,0.2-0.8,0.3-1.2c0-0.4-0.1-0.8-0.2-1.2s-0.4-0.7-0.7-1L7.4,33.9L35.1,5.3c0.4-0.4,0.7-1,0.8-1.6c0.1-0.6,0-1.2-0.2-1.8
		c-0.3-0.6-0.7-1-1.2-1.4C34,0.1,33.4,0,32.8,0z" />
</g>
</svg>
