<?xml version="1.0" encoding="utf-8"?><!-- Generator: Adobe Illustrator 27.0.0, SVG Export Plug-In . SVG Version: 6.00 Build 0)  -->
<svg version="1.1" id="Layer_1" xmlns="http://www.w3.org/2000/svg" x="0px" y="0px"
	viewBox="0 0 36 69" style="enable-background:new 0 0 36 69;" xml:space="preserve">
<style type="text/css">
	.st0{fill-rule:evenodd;clip-rule:evenodd;fill:#DADADA;}
</style>
	<g id="Chevron-icon">
	<path id="Vector" class="st0" d="M3.2,67.8c0.8,0,1.6-0.4,2.1-1L35.1,36c0.6-0.6,0.9-1.3,0.9-2.1s-0.3-1.6-0.9-2.1L5.3,1
		c-0.3-0.3-0.6-0.5-1-0.7C4,0.1,3.6,0,3.2,0C2.8,0,2.4,0.1,2,0.2c-0.4,0.1-0.7,0.4-1,0.7c-0.3,0.3-0.5,0.6-0.7,1C0.1,2.2,0,2.6,0,3
		c0,0.4,0.1,0.8,0.2,1.2c0.2,0.4,0.4,0.7,0.7,1l27.7,28.6L0.9,62.5c-0.4,0.4-0.7,1-0.8,1.6c-0.1,0.6,0,1.2,0.2,1.8
		c0.3,0.6,0.7,1,1.2,1.4C2,67.7,2.6,67.8,3.2,67.8z" />
</g>
</svg>
