<?xml version="1.0" encoding="utf-8"?><!-- Generator: Adobe Illustrator 27.0.0, SVG Export Plug-In . SVG Version: 6.00 Build 0)  -->
<svg version="1.1" id="Layer_1" xmlns="http://www.w3.org/2000/svg" x="0px" y="0px" viewBox="0 0 330.9 217.6"
	style="enable-background:new 0 0 330.9 217.6;" xml:space="preserve">
<style type="text/css">
	.st0{fill:#0A0F14;}
	.st1{fill:#E0E0E0;}
	.st2{fill:#455A64;}
	.st3{fill:#FFFFFF;}
	.st4{fill:#263238;}
	.st5{opacity:0.5;enable-background:new    ;}
	.st6{fill:#B78876;}
	.st7{fill:#A36957;}
	.st8{fill:#E8505B;}
	.st9{fill:url(#SVGID_1_);}
	.st10{fill:url(#SVGID_00000007421239840823601400000017268946242432395187_);}
	.st11{fill:url(#SVGID_00000008125085349086979360000008663374207256409226_);}
	.st12{fill:#FFBE9D;}
	.st13{fill:#EB996E;}
	.st14{opacity:0.2;enable-background:new    ;}
</style>
	<path class="st0" d="M328.4,195.3c0,6.2-72.7,18.5-162.4,18.5c-89.7,0-162.4-6.2-162.4-18.5c0-12.3,72.7-18.5,162.4-18.5
	C255.7,176.8,328.4,182.9,328.4,195.3z" />
	<path class="st1" d="M291.3,6.7h-58.9v188.8h58.9V6.7z" />
	<path class="st2" d="M271,8.1V187l28.2,8.4l0.1-187.3H271z" />
	<path class="st3" d="M274.5,94.8c0.1,1.4-0.5,2.5-1.2,2.6c-0.7,0-1.3-1.1-1.3-2.5c-0.1-1.4,0.5-2.5,1.2-2.6
	C273.8,92.3,274.4,93.4,274.5,94.8z" />
	<path class="st3"
		d="M273.2,93.8l5.5,0.8c0.3,0,0.5,0.3,0.5,0.6c0,0.4-0.3,0.7-0.7,0.7l-5.3-0.9L273.2,93.8L273.2,93.8z" />
	<path class="st4" d="M225.5,0v6.1v1.9v187.3h9.2V8.1H289v187.3h10.2V8.1V6.2V0H225.5z" />
	<path class="st4" d="M234.8,8.1h-4.6v187.3h4.6V8.1z" />
	<path class="st5" d="M234.8,8.1h-4.6v187.3h4.6V8.1z" />
	<path class="st4" d="M299.3,0h-4.6v195.5h4.6V0z" />
	<path class="st5" d="M299.3,0h-4.6v195.5h4.6V0z" />
	<path class="st4" d="M262.8,37.5c0.2,3.6,2.7,6.5,5.8,7.3c1.7,0.4,3.5,0.2,4.9,1.4c2.2,2,0.9,6,2.5,8.7c0.9,1.6,2.8,2.4,3.8,4
	c1.8,2.5,0.6,6.4-1.8,8.4c-2.3,1.9-5.5,2.3-8.5,2.2c-6.5-0.2-13.2-2.3-17.9-7.1c-2.2-2.3-9.4-10.9-6.1-23.2" />
	<path class="st6" d="M239.2,55.7c0,0-11.4,10.3-11.7,9.1c-1.6-6.8-1.2-15.6-0.9-18.9c0.2-0.3,0.4-0.6,0.6-0.9c0.3-0.4,0.6-0.8,1-1.1
	c0.5-0.3,1.1-0.8,1.5-0.9c0.5-0.2,0.6-0.9,0.2-1.1c-0.5-0.2-1.9,0.2-3.3,1.4s-0.8-1.6-0.6-2.7c0.2-1,0.6-4.2,0.4-4.5
	c-0.4-0.4-0.9-0.1-1.1,0.9c-0.2,1.1-0.9,4-1.4,3.9c-0.5-0.1,0.5-5.3,0.5-5.3s0.4-1.1-0.2-1.2c-1.1-0.3-1.8,5.3-1.8,5.9
	c0,0.4-0.6,0.3-0.5-0.1s1.1-5.1,0-5.4c-0.9-0.2-0.6,4.6-1.3,5.5c-0.7,0.9,0.2-3.7-0.6-3.9c-0.3-0.1-0.5-0.1-0.7,2.6
	c-0.1,1.4,0.1,4.2,0.2,6.5c-0.7,7.4-2.1,30,7.7,29.1c11.6-0.9,14.2-10.4,14.2-10.4L239.2,55.7L239.2,55.7z" />
	<path class="st6" d="M248.3,52.3c0.2-0.9-0.1-4.9-0.1-4.9s-3.4-0.4-3.6-4c-0.2-3.6,0.2-12,0.2-12l6.3-3.2l6.8,5.6l-1.2,18.4
	L248.3,52.3L248.3,52.3z" />
	<path class="st4" d="M245.4,37.5c0,0.3,0.2,0.4,0.4,0.4c0.2,0,0.4-0.2,0.4-0.4s-0.2-0.4-0.4-0.5C245.7,37,245.4,37.2,245.4,37.5
	L245.4,37.5z" />
	<path class="st4" d="M245,37c0.1,0.1,0.4-0.2,0.9-0.2c0.5,0,0.8,0.2,0.9,0.2c0,0,0-0.2-0.2-0.3c-0.2-0.1-0.4-0.2-0.7-0.2
	c-0.3,0-0.5,0.2-0.7,0.3C245,36.8,245,36.9,245,37z" />
	<path class="st4" d="M250.5,37.6c0,0.3,0.2,0.4,0.4,0.4c0.2,0,0.4-0.2,0.4-0.4c0-0.2-0.2-0.4-0.4-0.5
	C250.6,37.1,250.5,37.3,250.5,37.6L250.5,37.6z" />
	<path class="st4" d="M250.2,37.1c0.1,0.1,0.4-0.2,0.9-0.2c0.5,0,0.8,0.2,0.9,0.2c0,0,0-0.2-0.2-0.3c-0.2-0.1-0.4-0.2-0.7-0.2
	c-0.3,0-0.5,0.2-0.7,0.3C250.2,36.9,250.1,37,250.2,37.1z" />
	<path class="st4" d="M248.4,41.2c0,0-0.3-0.1-0.7-0.1c-0.1,0-0.2,0-0.3-0.1c0-0.1,0-0.2,0.1-0.4c0.1-0.3,0.2-0.7,0.3-1.1
	c0.5-1.4,0.8-2.7,0.7-2.7c0,0-0.5,1.2-1,2.6c-0.1,0.4-0.2,0.7-0.3,1.1c0,0.2-0.1,0.3-0.1,0.5c0,0.1,0.1,0.2,0.2,0.2
	c0.1,0,0.2,0,0.2,0C248.1,41.2,248.4,41.2,248.4,41.2L248.4,41.2z" />
	<path class="st3"
		d="M250,41.7c0.5-0.3-1.3,0.8-2.3,0.8c0,0,0.6,0.9,1.5,0.5C250.2,42.5,250,41.7,250,41.7z" />
	<path class="st7"
		d="M248.2,47.4c0,0,2.3,0.1,4.5-1.6c0,0-1.1,2.7-4.5,2.4L248.2,47.4L248.2,47.4z" />
	<path class="st4" d="M262.8,37.6c0-0.3-0.1-0.7-0.1-1.1c0-0.6-0.1-1.2-0.2-1.5c-1.7-7.6-7.9-9.1-9.2-9.1c-1.3,0-3.6-0.8-7,2.8
	s-1.7,7.7-1.7,7.7l0.6-0.6l5-1.3c-0.4-1.4,0.2-3.2,0.6-4c0.9,5.4,6.5,6,6.5,6L256.9,51c5.5-1.2,5.9-10.4,5.9-13.6h0.1V37.6z" />
	<path class="st6" d="M271.5,189.9c0,0-12.9-45.1-13.1-46.5c-0.2-1.3,5.8-32.9,6.6-41.1l-18.1,0.2c0,0,0,0,0,0.1l-8.7,0.3l4.4,90
	l9.6,0.3l-0.2-29.6c4.7,14.5,10.8,30.8,10.8,30.8L271.5,189.9L271.5,189.9z" />
	<path class="st7" d="M246.2,141.4c0,0,0,0.3-0.1,1c0,0.6,0,1.6,0,2.7c0.1,1.1,0.3,2.4,0.6,3.9c0.3,1.4,1,3,1.5,4.6
	c1.2,3.2,2.2,6.1,3,8.3c0.4,1.1,0.6,1.9,0.9,2.5c0.2,0.6,0.3,0.9,0.3,0.9c0,0-0.2-0.3-0.4-0.9c-0.3-0.6-0.6-1.5-1-2.5
	c-0.8-2.1-1.9-5-3.1-8.3c-0.3-0.8-0.6-1.6-0.9-2.4c-0.3-0.8-0.5-1.6-0.6-2.3c-0.3-1.4-0.5-2.8-0.6-3.9c-0.1-1.2,0-2,0-2.7
	c0-0.3,0.1-0.6,0.1-0.7c0-0.2,0-0.3,0.1-0.2V141.4z" />
	<path class="st7"
		d="M251.9,174.3c0-0.3,0.2-10,0.2-10s-3.1-9-3.3-8.7C248.7,155.8,251.9,174.4,251.9,174.3L251.9,174.3z" />
	<path class="st8"
		d="M263,194.2l8.5-4.3l1,1.9l-3,1.8c-2,1.2-9,4.9-10.6,5.3C257,199.2,263,194.3,263,194.2L263,194.2z" />
	<path class="st4"
		d="M258.5,198.6c0-0.1,3-1.7,6.9-3.5c3.8-1.9,7-3.4,7-3.3c0,0.1-3,1.7-6.9,3.5S258.5,198.6,258.5,198.6z" />
	<path class="st4" d="M270.2,192.9c0,0-0.1-0.2,0-0.4c0-0.3,0.1-0.6,0.3-1c0.2-0.4,0.5-0.7,0.8-0.8c0.3-0.1,0.5-0.1,0.5-0.1
	c0,0-0.2,0.1-0.4,0.2c-0.2,0.1-0.5,0.4-0.6,0.7c-0.2,0.3-0.3,0.7-0.3,0.9C270.4,192.8,270.3,192.9,270.2,192.9L270.2,192.9z" />
	<path class="st4" d="M262.6,194.7c0,0.1,0.3,0.2,0.6,0.3c0.3,0.1,0.6,0.2,0.6,0.1c0-0.1-0.2-0.3-0.5-0.4
	C262.9,194.5,262.6,194.5,262.6,194.7z" />
	<path class="st4" d="M262,195.1c0,0.1,0.2,0.2,0.5,0.3c0.3,0.1,0.6,0.1,0.6,0.1c0-0.1-0.2-0.2-0.5-0.3C262.3,195,262,195,262,195.1z
	" />
	<path class="st4" d="M261.5,195.5c0,0.1,0.2,0.2,0.4,0.3c0.2,0.1,0.5,0.2,0.5,0.1c0-0.1-0.1-0.3-0.4-0.4
	C261.8,195.5,261.5,195.4,261.5,195.5L261.5,195.5z" />
	<path class="st4" d="M262.6,194.7c0,0,0-0.3-0.1-0.9c-0.1-0.3-0.2-0.6-0.4-0.9c-0.1-0.2-0.3-0.3-0.5-0.4c-0.1-0.1-0.2-0.1-0.3-0.2
	c-0.1,0-0.3-0.1-0.5,0c-0.3,0.2-0.3,0.6-0.2,0.8c0.1,0.2,0.3,0.3,0.4,0.5c0.3,0.3,0.5,0.5,0.8,0.7
	C262.2,194.5,262.6,194.7,262.6,194.7c0.1,0-0.2-0.3-0.6-0.7c-0.2-0.2-0.5-0.4-0.7-0.7c-0.1-0.2-0.3-0.3-0.3-0.4
	c-0.1-0.2-0.1-0.3,0-0.4c0.1-0.1,0.3,0,0.5,0.2c0.2,0.1,0.3,0.2,0.4,0.4c0.2,0.3,0.4,0.6,0.5,0.8
	C262.5,194.4,262.6,194.8,262.6,194.7L262.6,194.7z" />
	<path class="st4" d="M262.6,194.5c0,0-0.3-0.3-0.9-0.6c-0.3-0.1-0.6-0.3-1.1-0.3c-0.2,0-0.4-0.1-0.7-0.1c-0.1,0-0.3,0-0.4,0
	c-0.1,0-0.2,0-0.2,0.1c-0.1,0.1-0.1,0.2-0.1,0.3c0.1,0.3,0.3,0.4,0.5,0.6c0.2,0.1,0.4,0.2,0.6,0.2c0.4,0.1,0.8,0.1,1.1,0
	C262.2,194.8,262.6,194.5,262.6,194.5c-0.1,0-0.4,0.1-1,0.1c-0.3,0-0.7,0-1.1-0.1c-0.2,0-0.4-0.1-0.5-0.2c-0.2-0.1-0.3-0.3-0.4-0.3
	c0,0,0.2-0.1,0.4-0.1c0.2,0,0.4,0,0.6,0c0.4,0.1,0.7,0.2,1,0.3c0.6,0.2,0.9,0.4,0.9,0.3L262.6,194.5z" />
	<path class="st4" d="M263.1,194.2c0,0.1,2-0.7,4.3-1.9c2.3-1.2,4.1-2.2,4-2.3c-0.1-0.1-1.9,0.8-4.2,2
	C265,193.1,263.1,194,263.1,194.2L263.1,194.2z" />
	<path class="st8"
		d="M243.6,192.8h8.5c0,0.1-0.2,2.6-0.2,2.6h-0.5c-2.5,0-12.5-0.2-14.1-0.7C235.4,194.1,243.6,192.8,243.6,192.8z" />
	<path class="st4" d="M237,194.3c0-0.1,3.4,0.1,7.5,0.3c4.1,0.2,7.4,0.5,7.4,0.6c0,0.1-3.4-0.1-7.5-0.3
	C240.3,194.7,237,194.4,237,194.3z" />
	<path class="st4" d="M249.2,195c0,0,0-0.2,0.2-0.4c0.2-0.2,0.4-0.5,0.9-0.7c0.4-0.2,0.9-0.3,1.2-0.3c0.3,0,0.5,0.2,0.4,0.2
	c0,0-0.2,0-0.5,0c-0.3,0-0.6,0.1-1,0.3c-0.4,0.2-0.6,0.4-0.9,0.6C249.4,194.9,249.2,195,249.2,195L249.2,195z" />
	<path class="st4" d="M242.9,192.9c-0.1,0.1,0.1,0.3,0.4,0.6c0.2,0.3,0.4,0.4,0.5,0.4c0.1,0,0-0.3-0.3-0.6
	C243.3,193,243,192.9,242.9,192.9L242.9,192.9z" />
	<path class="st4" d="M242.1,193.1c-0.1,0.1,0.1,0.3,0.3,0.6c0.2,0.3,0.5,0.4,0.5,0.4c0.1,0-0.1-0.3-0.3-0.6
	C242.4,193.2,242.2,193,242.1,193.1z" />
	<path class="st4" d="M241.4,193.2c-0.1,0,0,0.3,0.2,0.5c0.2,0.2,0.3,0.4,0.4,0.4s0.1-0.3-0.1-0.5
	C241.7,193.4,241.5,193.2,241.4,193.2L241.4,193.2z" />
	<path class="st4" d="M242.9,193c0,0,0.3-0.3,0.5-0.8c0.1-0.3,0.2-0.6,0.2-1c0-0.2,0-0.4-0.1-0.6c0-0.1-0.1-0.2-0.2-0.3
	c-0.1-0.1-0.2-0.2-0.4-0.2c-0.4,0-0.6,0.3-0.6,0.6c0,0.2,0,0.4,0.1,0.6c0.1,0.4,0.2,0.7,0.3,1c0.2,0.6,0.4,0.8,0.4,0.8
	s-0.1-0.3-0.2-0.9c-0.1-0.3-0.2-0.6-0.2-0.9c0-0.2,0-0.4,0-0.6s0.1-0.3,0.2-0.3c0.1,0,0.3,0.2,0.3,0.3c0.1,0.2,0.1,0.3,0.1,0.6
	c0,0.3,0,0.7-0.1,0.9C243,192.8,242.9,193.1,242.9,193L242.9,193z" />
	<path class="st4" d="M243,192.9c0,0-0.1-0.3-0.4-0.9c-0.2-0.2-0.4-0.6-0.7-0.8c-0.2-0.1-0.3-0.3-0.5-0.4c-0.1,0-0.2-0.1-0.4-0.2
	c-0.1,0-0.2,0-0.3,0c-0.1,0-0.2,0.1-0.3,0.2c-0.2,0.3,0,0.6,0.1,0.7c0.1,0.2,0.3,0.4,0.4,0.5c0.3,0.3,0.6,0.4,1,0.6
	c0.6,0.3,1,0.3,1,0.2c0,0-0.4-0.1-0.9-0.4c-0.3-0.2-0.6-0.3-0.9-0.6c-0.2-0.1-0.3-0.3-0.4-0.4c-0.1-0.2-0.2-0.4-0.1-0.5
	c0,0,0.2,0,0.4,0.1c0.2,0.1,0.4,0.2,0.5,0.3c0.3,0.2,0.5,0.5,0.7,0.7c0.4,0.4,0.6,0.8,0.6,0.7L243,192.9z" />
	<path class="st4" d="M243.7,192.8c0,0.1,1.8,0.3,4.1,0.3c2.2,0,4.1-0.1,4.1-0.2c0-0.1-1.8-0.1-4.1-0.2
	C245.5,192.8,243.7,192.7,243.7,192.8L243.7,192.8z" />
	<path class="st8" d="M269.5,71.2c0,0,0.4-1.3-0.6-9.6c-0.4-3.6-2.8-5.8-5.3-7.2l-0.2-0.1c-3.2-1.7-6.6-2-6.6-2l-9-0.2
	c0,0-6.6-0.8-10.7,3.9c-4.2,4.7-7,7.5-7,7.5l6.7,8.3l1.8-1.8c0,0-0.2,3.8,1,6c1.2,2.2,2.9,5.3,2.9,5.3l-1.9,9.3
	c-1.2,3.5-5.1,16.5-3.6,29.3c1.9,15.9,2.2,20.5,2.2,20.5l21.6,3c0,0,8.6-33.6,5.7-47c-2-9.2-3.6-8.7-4.1-10.7l0.6-14.3l6.6-0.3
	L269.5,71.2z" />
	<path class="st4" d="M240.2,66.9c0.1,0-0.3,0.8-0.8,1.7c-0.5,0.9-1,1.6-1,1.5c-0.1,0,0.3-0.8,0.8-1.7
	C239.6,67.5,240.1,66.9,240.2,66.9z" />
	<path class="st4" d="M259.6,84.3c0,0-0.3,0.1-0.7,0.2c-0.4,0.1-1.1,0.2-1.9,0.2c-1.6,0.2-3.8,0.3-6.3,0.3c-2.5,0-4.7-0.3-6.3-0.5
	c-0.8-0.1-1.4-0.2-1.9-0.3c-0.4-0.1-0.7-0.2-0.7-0.2s0.3,0,0.7,0.1c0.5,0.1,1.1,0.1,1.9,0.2c1.6,0.2,3.8,0.4,6.3,0.4
	c2.5,0,4.7-0.1,6.3-0.2c0.7-0.1,1.4-0.1,1.9-0.2C259.4,84.4,259.6,84.4,259.6,84.3L259.6,84.3z" />
	<path class="st4" d="M266.8,109.4c0,0,0,0.2-0.1,0.4c-0.1,0.3-0.2,0.7-0.3,1.3c-0.1,0.3-0.2,0.6-0.2,0.9c-0.1,0.3-0.2,0.7-0.3,1.1
	c-0.3,0.8-0.5,1.6-0.9,2.5c-0.2,0.4-0.4,0.9-0.6,1.4c-0.2,0.5-0.5,1-0.7,1.6c-0.5,1.1-1.1,2.2-1.8,3.3c-1.3,2.3-3,4.7-5,6.9
	c-2,2.3-4.2,4.2-6.2,5.8c-1.1,0.8-2,1.5-3,2c-0.5,0.3-1,0.6-1.4,0.9c-0.5,0.2-0.9,0.5-1.3,0.7c-0.9,0.5-1.7,0.8-2.4,1.1
	c-0.4,0.2-0.7,0.3-1,0.4c-0.3,0.1-0.6,0.2-0.9,0.3c-0.5,0.2-0.9,0.3-1.2,0.4c-0.3,0.1-0.4,0.1-0.4,0.1s0.2-0.1,0.4-0.2
	c0.3-0.1,0.7-0.3,1.2-0.4c0.3-0.1,0.5-0.2,0.9-0.3c0.3-0.1,0.6-0.3,1-0.4c0.7-0.3,1.5-0.7,2.3-1.2c0.4-0.2,0.9-0.5,1.3-0.7
	c0.5-0.3,0.9-0.6,1.4-0.9c1-0.6,2-1.3,3-2.1c2-1.6,4.2-3.5,6.2-5.7c2-2.3,3.6-4.6,5-6.9c0.6-1.2,1.3-2.2,1.8-3.3
	c0.3-0.6,0.5-1.1,0.7-1.6c0.2-0.5,0.4-1,0.6-1.4c0.4-0.9,0.6-1.8,0.9-2.5c0.1-0.4,0.3-0.7,0.4-1.1c0.1-0.3,0.2-0.6,0.3-0.9
	c0.2-0.5,0.3-0.9,0.3-1.2C266.8,109.5,266.8,109.4,266.8,109.4L266.8,109.4z" />
	<path class="st3" d="M269.2,66.4c0,0-0.1,0.1-0.3,0.2c-0.2,0.1-0.6,0.3-1,0.5c-0.9,0.4-2.2,1.1-3.9,1.3c-0.9,0.1-1.9,0.1-2.9-0.2
	c-0.5-0.2-1-0.3-1.5-0.7c-0.5-0.3-0.9-0.7-1.3-1.2c-0.7-0.9-1.3-2.1-1.9-3.2c-0.6-1.1-1.4-2.2-2.7-2.7c-1.2-0.4-2.5-0.1-3.7,0.2
	c-1.2,0.3-2.3,0.8-3.5,0.8c-1.2,0-2.3-0.4-3.1-1c-0.9-0.6-1.5-1.4-1.8-2.3c-0.4-0.8-0.4-1.7-0.4-2.4c0-0.7,0.2-1.3,0.4-1.8
	c0.4-0.9,0.8-1.3,0.8-1.3s-0.4,0.4-0.7,1.4c-0.2,0.4-0.3,1.1-0.3,1.8c0,0.7,0.1,1.5,0.4,2.3c0.3,0.8,1,1.6,1.8,2.2
	c0.8,0.6,1.9,1,3,0.9c1.1,0,2.3-0.4,3.5-0.8c0.6-0.2,1.2-0.3,1.9-0.4c0.6-0.1,1.3,0,2,0.2c0.6,0.2,1.2,0.7,1.7,1.2
	c0.5,0.5,0.8,1.1,1.1,1.6c0.6,1.1,1.2,2.3,1.9,3.2c0.7,0.9,1.7,1.6,2.6,1.8c1,0.3,1.9,0.3,2.8,0.2c1.7-0.2,3-0.8,3.9-1.2
	c0.4-0.2,0.7-0.3,1-0.4c0.2-0.1,0.4-0.2,0.4-0.2L269.2,66.4z" />
	<path class="st3" d="M256.5,86c0,0,0.3-0.3,0.4-0.9c0.1-0.6-0.1-1.7-0.9-2.5c-0.4-0.4-0.9-0.8-1.5-1s-1.3-0.4-2.1-0.5
	c-0.7-0.1-1.5-0.2-2.4-0.3c-0.8-0.2-1.7-0.5-2.4-1.1c-0.4-0.3-0.6-0.7-0.9-1.1c-0.2-0.4-0.4-0.8-0.5-1.2c-0.3-0.8-0.5-1.6-0.9-2.3
	c-0.7-1.3-2.1-2-3.3-2c-1.1,0-2,0.4-2.5,0.8c-0.5,0.4-0.7,0.7-0.7,0.7c0,0,0-0.1,0.2-0.2c0.1-0.1,0.3-0.3,0.5-0.6
	c0.5-0.4,1.4-0.9,2.6-0.9c1.2,0,2.6,0.6,3.5,2c0.4,0.7,0.6,1.5,0.9,2.3c0.3,0.8,0.6,1.6,1.3,2.2c0.6,0.6,1.5,0.8,2.3,1
	c0.8,0.2,1.6,0.3,2.3,0.4c1.5,0.2,2.9,0.7,3.7,1.6c0.8,0.9,1,2,0.8,2.7c-0.1,0.3-0.2,0.6-0.3,0.7C256.5,86,256.4,86.1,256.5,86
	L256.5,86z" />
	<path class="st3" d="M264.9,125.3c0,0-0.7-0.2-2.1,0.1c-0.7,0.1-1.5,0.4-2.5,0.7c-1,0.3-2,0.6-3.3,0.6c-1.2,0-2.6-0.2-4-0.8
	c-1.3-0.6-2.7-1.6-3.6-3c-0.9-1.4-1.4-3.3-1.2-5.2c0.1-0.9,0.4-1.9,0.8-2.7c0.4-0.9,1.1-1.6,1.9-2.2c0.7-0.6,1.6-1.1,2-1.9
	c0.2-0.4,0.3-0.8,0.2-1.3c-0.1-0.4-0.2-0.9-0.4-1.3c-0.4-0.8-0.8-1.7-0.9-2.6c-0.1-0.9,0.1-1.8,0.4-2.6c0.6-1.7,1.9-2.8,3.3-3.4
	c1.3-0.7,2.8-0.8,4-0.7c1.2,0,2.3,0.1,3.3-0.1c1-0.2,1.8-0.5,2.3-0.9c0.5-0.4,0.9-0.9,1.1-1.2c0.2-0.3,0.2-0.6,0.2-0.5
	c0,0,0,0.2-0.2,0.6s-0.5,0.8-1,1.3c-0.5,0.4-1.3,0.8-2.3,1c-1,0.2-2.1,0.2-3.4,0.2c-1.2,0-2.6,0.1-3.9,0.8c-1.3,0.6-2.6,1.7-3.1,3.3
	c-0.3,0.8-0.4,1.7-0.3,2.5c0.1,0.9,0.5,1.7,0.9,2.5c0.2,0.4,0.4,0.9,0.4,1.4c0.1,0.5,0,1-0.2,1.5c-0.5,0.9-1.3,1.4-2.1,2
	c-1.5,1.1-2.4,2.9-2.6,4.7c-0.2,1.8,0.2,3.6,1.1,5c0.9,1.4,2.2,2.4,3.5,3c1.3,0.6,2.7,0.8,3.9,0.8s2.3-0.3,3.3-0.6s1.8-0.5,2.5-0.6
	c0.7-0.1,1.2-0.1,1.6-0.1c0.4,0,0.5,0.1,0.5,0.1L264.9,125.3z" />
	<path class="st3" d="M257.3,143c0,0,0-0.4,0-1.1c0-0.7,0-1.7-0.5-2.8c-0.3-0.6-0.7-1.1-1.3-1.4c-0.6-0.3-1.4-0.3-2.1-0.3
	c-0.8,0-1.7,0-2.5-0.3c-0.4-0.2-0.8-0.5-1.1-0.9c-0.3-0.4-0.5-0.8-0.7-1.2c-0.4-0.8-0.8-1.7-1.4-2.3c-0.5-0.7-1.2-1.2-1.9-1.6
	c-1.4-0.8-2.8-0.9-4-0.7c-1.2,0.2-2.1,0.6-2.6,0.9c-0.6,0.4-0.9,0.6-0.9,0.6s0.1-0.1,0.2-0.2c0.1-0.1,0.3-0.3,0.6-0.5
	c0.5-0.4,1.4-0.9,2.7-1.1c1.2-0.2,2.7-0.1,4.2,0.7c0.7,0.4,1.4,0.9,2,1.6c0.3,0.3,0.5,0.7,0.8,1.1c0.2,0.4,0.4,0.8,0.6,1.3
	c0.4,0.8,0.9,1.6,1.7,1.9c0.7,0.3,1.6,0.3,2.4,0.3s1.6,0,2.2,0.4c0.7,0.3,1.1,0.9,1.4,1.5c0.5,1.2,0.4,2.2,0.4,2.9
	c0,0.3-0.1,0.6-0.1,0.8C257.4,142.9,257.4,143,257.3,143L257.3,143z" />
	<path class="st3" d="M244.5,97.2c0,0-0.2,0.3-0.4,0.9s-0.7,1.5-0.8,2.7c0,0.6,0.1,1.2,0.4,1.9c0.3,0.6,0.7,1.2,1.2,1.9
	c1,1.3,1.5,3.2,1.2,5c-0.3,1.9-1.5,3.4-2.9,4.2c-0.7,0.4-1.4,0.6-2.2,0.6c-0.7,0-1.3-0.2-1.9-0.4c-1.1-0.5-1.8-1.3-2.1-1.9
	c-0.2-0.3-0.3-0.6-0.3-0.7c0-0.2-0.1-0.3-0.1-0.3s0.1,0.3,0.5,0.9c0.3,0.6,1,1.3,2.1,1.8c0.5,0.2,1.1,0.4,1.8,0.4
	c0.7,0,1.4-0.2,2-0.6c1.3-0.7,2.5-2.2,2.8-3.9c0.3-1.8-0.3-3.5-1.1-4.8c-0.4-0.7-0.9-1.3-1.2-1.9c-0.3-0.7-0.4-1.4-0.4-2
	c0.1-1.2,0.6-2.2,0.9-2.7c0.2-0.3,0.3-0.5,0.4-0.7c0.1-0.2,0.2-0.2,0.2-0.2L244.5,97.2z" />
	<path class="st4" d="M260.6,78.6c0,0,0-0.2-0.1-0.7c0-0.5,0-1.1-0.1-1.8c-0.1-1.6-0.2-3.7-0.3-5.9c-0.1-2.3-0.2-4.4-0.2-5.9
	c0-0.8,0-1.4,0-1.8s0-0.7,0-0.7s0,0.2,0.1,0.7c0,0.5,0,1.1,0.1,1.8c0.1,1.6,0.2,3.7,0.3,5.9c0.1,2.3,0.2,4.4,0.2,5.9
	c0,0.8,0,1.4,0,1.8S260.6,78.6,260.6,78.6z" />
	<path class="st6" d="M260.4,71.6c0,0,0.9,11.2-0.1,11.9c-5.7,4.2-13.3,5.8-16,6.3c-0.4-0.2-0.8-0.3-1.3-0.6
	c-0.4-0.2-0.9-0.5-1.2-0.8c-0.4-0.4-1-1-1.2-1.4c-0.3-0.5-1-0.4-1,0.1c-0.1,0.5,0.6,1.9,2,3c1.4,1.1-1.3,1.2-2.3,1.2
	c-1,0-4.1,0.3-4.3,0.7c-0.3,0.5,0.1,0.9,1.1,0.9c1-0.1,4,0,4,0.5c0,0.6-5.1,0.7-5.1,0.7s-1.1-0.2-1.1,0.5c0,1.2,5.3,0.6,5.9,0.6
	c0.4,0,0.4,0.6,0,0.6c-0.4,0-5.1,0-5.1,1.2c0,0.9,4.4-0.4,5.4,0.2c1,0.6-3.5,0.7-3.5,1.5c0,0.3,0,0.6,2.6,0.1
	c1.2-0.2,3.4-0.9,5.4-1.5c0,0,26.5-2.3,25.9-14.7c-0.4-8.4-0.3-6.9-0.8-11.2" />
	<linearGradient id="SVGID_1_" gradientUnits="userSpaceOnUse" x1="27.1143" y1="24.6048"
		x2="131.7267" y2="24.6048" gradientTransform="matrix(1 0 0 -1 0 200)">
	<stop offset="0" style="stop-color:#CC0022" />
		<stop offset="0.3" style="stop-color:#A2005A" />
		<stop offset="0.6" style="stop-color:#830082" />
		<stop offset="0.9" style="stop-color:#70009B" />
		<stop offset="1" style="stop-color:#6A00A5" />
</linearGradient>
	<path class="st9" d="M121.2,176.9l-0.3-1.6l-1.7,0.3l1.3-0.2l-0.4-2.3h0.1c0.1,0,0.2-0.1,0.2-0.2L120,171c0-0.1-0.1-0.2-0.2-0.2
	l-0.5,0.1v-0.2c0,0,0,0-0.1-0.1l0.5-0.1c0.1,0,0.2-0.2,0.2-0.3l-0.2-1c0-0.1-0.2-0.2-0.3-0.2h0.4c0.2-0.1,0.4-0.3,0.3-0.6l-1.3-7.8
	l-0.1-0.8l-0.4-2.4c0-0.2-0.2-0.4-0.4-0.3h-0.2c0.3,0,0.5-0.3,0.5-0.7l-0.3-1.6c-0.1-0.3-0.4-0.6-0.6-0.5c0.3-0.1,0.5-0.4,0.5-0.7
	l-0.3-1.6c-0.1-0.3-0.4-0.6-0.6-0.5l-4.5,0.8c-0.3,0.1-0.5,0.4-0.5,0.7l0.3,1.6c0.1,0.3,0.4,0.6,0.6,0.5c-0.3,0.1-0.5,0.4-0.5,0.7
	l0.3,1.6c0.1,0.3,0.4,0.6,0.6,0.5h-0.2c-0.2,0.1-0.4,0.3-0.3,0.5l0.3,1.9l-22.5,24.8c-11.5,0-27.4,0-38.2,0c0,0-2.6-5.4-6.9-9.4
	c-5.5-1.8-9.7-0.4-12.6,1.8l-0.7-0.7c-0.2-0.2-0.6-0.2-0.8,0l-3,3.4c-0.2,0.2-0.2,0.6,0,0.8l0.6,0.6c-1.2,1.8-1.8,3.3-1.8,3.3h2.6
	c-0.2,0.8-0.3,1.7-0.3,2.7c0,6.1,4.7,11.1,10.7,11.1c5.9,0,7.3-2.2,9.2-5.5h49l6.7-4.8v-3c0-0.2-0.2-0.4-0.4-0.4h-6l15.8-17.3
	l0.3,1.6c0,0.2,0.2,0.4,0.4,0.3h0.3c-0.1,0-0.2,0.1-0.2,0.2l0.2,1c0,0.1,0.2,0.2,0.3,0.2l1.8-0.3c0,0,0,0,0,0.1v0.2l-0.5,0.1
	c-0.1,0-0.2,0.1-0.2,0.2l0.3,1.9c0,0.1,0.1,0.2,0.2,0.2h0.2l0.4,2.2h-0.4c0,0.1,0.3,1.6,0.3,1.6c-4.3,1.4-7.4,5.6-7.4,10.5
	c0,4.9,4.7,11.1,10.7,11.1c5.9,0,10.7-4.9,10.7-11.1c0-6.1-4.7-11-10.6-11.1L121.2,176.9z M39.7,192.1c-2,0-3.7-1.7-3.7-3.9
	c0-2.2,1.7-3.9,3.7-3.9c2.1,0,3.7,1.7,3.7,3.9C43.4,190.4,41.8,192.1,39.7,192.1z M121.1,192.2c-2,0-3.7-1.7-3.7-3.9
	c0-2.2,1.7-3.9,3.7-3.9c2.1,0,3.7,1.7,3.7,3.9C124.8,190.5,123.1,192.2,121.1,192.2z" />
	<linearGradient id="SVGID_00000108271006515733878380000015379924879699108257_"
		gradientUnits="userSpaceOnUse" x1="30.7047" y1="49.2366" x2="121.0198" y2="49.2366"
		gradientTransform="matrix(1 0 0 -1 0 200)">
	<stop offset="0" style="stop-color:#CC0022" />
		<stop offset="0.3" style="stop-color:#A2005A" />
		<stop offset="0.6" style="stop-color:#830082" />
		<stop offset="0.9" style="stop-color:#70009B" />
		<stop offset="1" style="stop-color:#6A00A5" />
</linearGradient>
	<path style="fill:url(#SVGID_00000108271006515733878380000015379924879699108257_);" d="M112,149.8l4.5-0.8
	c0.3-0.1,0.6,0.2,0.7,0.5l0.3,1.6c0.1,0.3-0.2,0.6-0.5,0.7l-4.5,0.8c-0.3,0.1-0.6-0.2-0.7-0.5l-0.3-1.6
	C111.4,150.1,111.7,149.8,112,149.8z" />
	<linearGradient id="SVGID_00000174567223851988318290000018050476356269740679_"
		gradientUnits="userSpaceOnUse" x1="29.9947" y1="76.5057" x2="121.1635" y2="76.5057"
		gradientTransform="matrix(1 0 0 -1 0 200)">
	<stop offset="0" style="stop-color:#CC0022" />
		<stop offset="0.3" style="stop-color:#A2005A" />
		<stop offset="0.6" style="stop-color:#830082" />
		<stop offset="0.9" style="stop-color:#70009B" />
		<stop offset="1" style="stop-color:#6A00A5" />
</linearGradient>
	<path style="fill:url(#SVGID_00000174567223851988318290000018050476356269740679_);" d="M104,107l7.3,43l5.6-1l-3.6-21.4l-3.6-21
	l-0.1-0.5c0.1,0,0.2,0,0.3,0c0.2,0,0.3,0,0.4,0c0.1,0,0.2,0.1,0.3,0.1c0.7,0.1,1.4-0.3,1.7-1c0.3-0.3,0.5-0.7,0.6-1.1
	c0.1,0,1.3-0.3,2.2,0.8l3.4,0.7c0.1,0.2,0.3,0.3,0.5,0.3c0.4,0,0.8-0.3,0.9-0.7c0-0.4-0.3-0.8-0.6-0.9c-0.2,0-0.4,0-0.6,0.2
	l-2.3-1.1c0,0-0.4-0.6-0.7-0.6c-0.3,0-1.7-0.4-1.7-0.4v-0.3l1,0.1v-0.5c0.1,0,1-0.1,1-0.1c0.1,0.1,0.3,0.2,0.4,0.2
	c0.3,0,0.6-0.2,0.7-0.6c0-0.3-0.2-0.7-0.5-0.7h-0.1l-2.9-0.4c0,0-1.2-0.4-2-0.6l-1.2-1.9l-0.5,0.2c0,0-0.9-1.4-2.1-0.8
	c-1.3,0.6-0.7,2-0.7,2c0.2,0.3,0.5,0.3,0.5,0.3s0.3,0.7,0.4,1.1l-4.1,0.9c-0.4,0.1-0.6,0.5-0.6,0.9L104,107L104,107z" />
	<path class="st8"
		d="M58.2,183.7l0.9-5.6l-9.7-1.7l-1.4,8.4l0.6,0.2c2.7,0.6,13.6,2.8,15.5,2.5C66.1,187.2,58.2,183.7,58.2,183.7z" />
	<path class="st4" d="M64.3,187c0,0.1-3.7-0.4-8.2-1.2c-4.5-0.7-8.1-1.4-8.1-1.5c0-0.1,3.7,0.4,8.2,1.2C60.7,186.3,64.3,187,64.3,187
	z" />
	<path class="st4" d="M58.2,184.9c-0.1-0.1,0-0.3,0.3-0.6c0.3-0.3,0.5-0.4,0.6-0.3c0.1,0.1-0.1,0.3-0.4,0.6
	C58.5,184.8,58.3,185,58.2,184.9z" />
	<path class="st4" d="M58.7,185.4c-0.1,0,0-0.4,0.3-0.7c0.3-0.3,0.5-0.5,0.6-0.4c0.1,0.1-0.1,0.3-0.3,0.7
	C59.1,185.2,58.8,185.4,58.7,185.4z" />
	<path class="st4" d="M51,184.8c0,0-0.2-0.2-0.3-0.4c-0.2-0.3-0.4-0.7-0.7-1.1c-0.3-0.3-0.7-0.6-1-0.7c-0.3-0.1-0.5-0.1-0.5-0.1
	c0,0,0.2-0.2,0.5-0.1c0.4,0,0.8,0.3,1.2,0.7c0.4,0.4,0.6,0.8,0.7,1.2C51.1,184.6,51.1,184.7,51,184.8L51,184.8z" />
	<path class="st4" d="M58.4,183.9c0,0.1-0.2,0.3-0.5,0.3c-0.3,0.1-0.5,0-0.5-0.1c0-0.1,0.2-0.2,0.5-0.2
	C58.1,183.9,58.3,183.8,58.4,183.9z" />
	<path class="st4"
		d="M58.3,183.3c0,0.1-0.3,0.1-0.6,0.1c-0.3,0-0.6-0.2-0.5-0.3c0-0.1,0.3-0.1,0.6-0.1S58.4,183.2,58.3,183.3z" />
	<path class="st8" d="M92.6,182.5l-0.2-5.7l-9.9,0.3l0.2,8.5h0.6c2.7,0.1,13.9,0,15.6-0.6C101,184.3,92.6,182.6,92.6,182.5
	L92.6,182.5z" />
	<path class="st4" d="M99.2,184.5c0,0.1-3.7,0.3-8.2,0.5c-4.5,0.2-8.2,0.2-8.2,0.2c0-0.1,3.7-0.3,8.2-0.5
	C95.5,184.5,99.2,184.4,99.2,184.5z" />
	<path class="st4" d="M92.8,183.7c-0.1,0,0-0.3,0.2-0.7c0.2-0.3,0.4-0.5,0.5-0.4c0.1,0.1-0.1,0.3-0.3,0.6
	C93.1,183.5,92.9,183.7,92.8,183.7L92.8,183.7z" />
	<path class="st4" d="M93.5,184.1c-0.1,0-0.1-0.4,0.1-0.7c0.2-0.4,0.4-0.6,0.5-0.6c0.1,0.1,0,0.3-0.2,0.7
	C93.7,183.8,93.5,184.1,93.5,184.1L93.5,184.1z" />
	<path class="st4" d="M85.7,185c0,0-0.2-0.1-0.4-0.3c-0.2-0.2-0.5-0.6-0.9-0.9c-0.4-0.3-0.8-0.4-1.1-0.4c-0.3,0-0.5,0-0.5,0
	c0,0,0.2-0.2,0.5-0.2c0.4,0,0.9,0.1,1.3,0.4c0.4,0.3,0.7,0.7,0.9,1C85.7,184.8,85.8,185,85.7,185z" />
	<path class="st4" d="M92.8,182.6c0,0.1-0.1,0.3-0.4,0.4c-0.3,0.1-0.5,0.1-0.5,0c0-0.1,0.2-0.2,0.4-0.3
	C92.6,182.6,92.8,182.5,92.8,182.6L92.8,182.6z" />
	<path class="st4" d="M92.6,182.1c0,0.1-0.3,0.2-0.6,0.2c-0.3,0-0.6,0-0.6-0.2c0-0.1,0.3-0.2,0.6-0.2
	C92.3,181.9,92.6,181.9,92.6,182.1z" />
	<path class="st12" d="M105.9,40.5l-0.5-1.9c0,0-0.2-1.2-0.9-3.2c-0.2-0.5-0.4-1-0.8-1.4c-0.4-0.5-1-1.2-1.4-1.4
	c-0.5-0.3-0.4-1.1,0.2-1.2c0.5,0,2,0.8,3,2.5c1.1,1.7,1.3-1.4,1.4-2.6c0.1-1.1,0.5-4.7,0.9-4.9c0.5-0.3,1,0.2,0.9,1.3
	c-0.1,1.2-0.3,4.5,0.3,4.6c0.6,0,1-5.8,1-5.8s-0.1-1.3,0.6-1.2c1.2,0,0.3,6.1,0.3,6.7c-0.1,0.4,0.5,0.4,0.6,0c0-0.4,0.3-5.8,1.5-5.8
	c1,0-0.6,5-0.1,6.2c0.5,1.2,0.9-3.9,1.8-3.9c0.3,0,0.6,0.1,0,3c-0.6,2.9-3.5,10.6-3.5,10.6l-5.2-1.9" />
	<path class="st12" d="M69.9,39l8.9,0.7c0.1-1.1,0.3-5.2,0.3-5.2s3.7-0.3,3.9-4.2c0.3-3.8,0.2-12.6,0.2-12.6
	c-4.1-2.2-9.1-1.8-12.9,0.8L69.7,19L69.9,39L69.9,39z" />
	<path class="st4"
		d="M82,24.2c-0.2-0.2-0.2-0.6,0-0.8c0.2-0.2,0.5-0.2,0.7,0c0.2,0.2,0.2,0.6,0,0.8C82.5,24.5,82.2,24.5,82,24.2z" />
	<path class="st4" d="M82.9,23.4c-0.1,0.1-0.4-0.2-0.9-0.3c-0.5,0-0.9,0.2-1,0.2c0,0,0-0.2,0.2-0.3c0.2-0.1,0.4-0.2,0.7-0.2
	s0.6,0.2,0.7,0.3C82.8,23.3,82.9,23.4,82.9,23.4L82.9,23.4z" />
	<path class="st4" d="M77.1,23.5c0.3,0.2,0.3,0.5,0.1,0.8c-0.2,0.3-0.5,0.3-0.7,0.1c-0.3-0.2-0.3-0.5-0.1-0.8
	C76.5,23.4,76.8,23.3,77.1,23.5z" />
	<path class="st4" d="M77.4,23.5c-0.1,0.1-0.4-0.2-0.9-0.3c-0.5,0-0.9,0.2-1,0.2c0,0,0-0.2,0.2-0.3c0.2-0.1,0.4-0.2,0.7-0.2
	c0.3,0,0.6,0.2,0.7,0.3C77.4,23.4,77.4,23.5,77.4,23.5L77.4,23.5z" />
	<path class="st4" d="M79.2,28c0,0,0.3-0.1,0.9-0.1c0.1,0,0.3,0,0.3-0.1c0-0.1,0-0.2-0.1-0.4c-0.1-0.3-0.2-0.7-0.3-1.1
	c-0.5-1.6-0.8-2.8-0.7-2.9c0.1,0,0.5,1.2,1,2.8c0.1,0.4,0.2,0.7,0.3,1.1c0,0.2,0.1,0.3,0,0.6c0,0.1-0.2,0.2-0.2,0.2
	c-0.1,0-0.2,0-0.2,0C79.5,28.1,79.2,28.1,79.2,28L79.2,28z" />
	<path class="st3"
		d="M77.5,28.5c-0.5-0.3,1.4,0.9,2.5,0.9c0,0-0.6,0.9-1.7,0.5C77.2,29.3,77.5,28.5,77.5,28.5z" />
	<path class="st13" d="M79.1,34.4c0,0-2.3,0-4.7-1.7c0,0,1,2.8,4.6,2.7L79.1,34.4L79.1,34.4z" />
	<path class="st4" d="M69.8,22.9l0.4,2.7h1.7l-0.1-5.7c0,0,6.5,0.5,7.2-2.2c0,0,1.9,3,4.3,2.9c0,0,2.1-0.2,0.1-3.2
	c-3-4.6-13.9-0.9-13.9-0.9s-0.4,0.9-0.4,2.6C69.1,22.1,69.8,22.9,69.8,22.9z" />
	<path class="st8" d="M68.9,20.1l14.5-3c0,0-1-6-8.8-4.3C67,14.6,69,20,68.9,20.1L68.9,20.1z" />
	<path class="st8"
		d="M68.9,20.1c0.2,0,17.7,0.4,18.9-2.1c0.6-1.2-4.6-1.2-4.6-1.2l0.1,0.4L68.9,20.1L68.9,20.1z" />
	<path class="st14"
		d="M68.9,20.1c0.2,0,17.7,0.4,18.9-2.1c0.6-1.2-4.6-1.2-4.6-1.2l0.1,0.4L68.9,20.1L68.9,20.1z" />
	<path class="st12"
		d="M70.4,22.4c-0.1,0-2.7-0.4-2.5,2.8c0.3,3.2,3.3,1.9,3.3,1.8C71.3,26.9,70.4,22.4,70.4,22.4z" />
	<path class="st13" d="M70.3,26c0,0,0,0-0.2,0.1c-0.1,0-0.2,0.1-0.4,0C69.4,26,69,25.5,69,24.9c0-0.3,0-0.6,0.1-0.8
	c0.1-0.2,0.2-0.4,0.4-0.4c0.2,0,0.3,0,0.3,0.1c0,0.1,0,0.2,0,0.2s0.1-0.1,0-0.2c0-0.1-0.1-0.1-0.2-0.2c-0.1-0.1-0.2-0.1-0.3-0.1
	c-0.2,0-0.4,0.3-0.5,0.6c-0.1,0.3-0.2,0.6-0.1,0.9c0.1,0.7,0.4,1.2,0.9,1.3c0.2,0,0.4,0,0.5-0.1c0.1-0.1,0.1-0.2,0.1-0.2L70.3,26z" />
	<path class="st4" d="M79,15.5l-1.8,0l0,1.8l1.8,0L79,15.5z" />
	<path class="st4" d="M78.9,14.5l-0.9,0l0,0.9l0.9,0L78.9,14.5z" />
	<path class="st2" d="M105.3,38.1c0,0-2.7,18-4.6,18.1c-2.2,0.1-8.9-9.8-8.9-9.8c-4.3-6.9-10-8-12.1-8.2v-0.8l-10.2-0.9
	c0,0,0,0.9,0,1.7h-4.5c0,0-8.1-0.4-9.3,10.9l5.8,4.8l2.4,9.2c0.7,2.8-0.4,6.4-1.6,12.7c-0.5-0.1-0.7-0.2-0.7-0.2L61.2,82
	c0,0.3-0.1,0.6-0.1,0.9h0.1l-2.5,50.7l-12.6,49.1l14.2,0.6l13.1-48c0,0,1.1-38.3,2.3-38.3c1.9,0,3.2,85.2,3.9,85.1
	c0.7-0.2,15.3,0,15.3,0l-4.8-99.3l-1.2-18.8l-0.5-5.4c2.8,4,8,10.4,13.6,10.2c9.1-0.2,10.4-29.5,10.4-29.5L105.3,38.1L105.3,38.1z" />
	<path class="st4" d="M75.1,96.6c0,0,0.4-0.6,0.9-1.7c0.4-1.1,0.7-2.7,0.7-4.4s0-3.3,0-4.5c0-1.2,0-1.9,0.1-1.9c0,0,0.1,0.7,0.1,1.9
	c0,1.2,0.1,2.8,0.1,4.5c0,0.9-0.1,1.7-0.2,2.5c-0.1,0.8-0.3,1.4-0.6,2c-0.2,0.6-0.5,0.9-0.7,1.2C75.2,96.5,75.1,96.6,75.1,96.6z" />
	<path class="st4" d="M66.7,88.6c0,0,0,0.2,0.1,0.5c0,0.3,0.1,0.8,0.1,1.4c0,1.2,0,2.9-0.9,4.7c-0.4,0.8-1,1.5-1.7,1.9
	c-0.7,0.4-1.4,0.6-2,0.7c-0.6,0-1.1-0.1-1.4-0.2c-0.3-0.1-0.4-0.3-0.4-0.3c0-0.1,0.6,0.4,1.8,0.3c0.6,0,1.2-0.2,1.9-0.7
	c0.6-0.4,1.2-1.1,1.6-1.9c0.8-1.6,0.9-3.3,1-4.5C66.7,89.4,66.7,88.6,66.7,88.6L66.7,88.6z" />
	<path class="st4" d="M91.1,97.4c0,0-0.1,0.2-0.4,0.3c-0.3,0.2-0.7,0.3-1.3,0.3s-1.2-0.2-1.8-0.7c-0.6-0.4-1.1-1.1-1.6-1.8
	c-1-1.4-1.3-3-1.5-4.2c-0.1-0.6,0-1.1,0-1.3c0-0.3,0-0.5,0.1-0.5c0,0,0,0.7,0.2,1.8c0.2,1.1,0.6,2.6,1.5,4c0.5,0.7,1,1.3,1.5,1.8
	c0.5,0.4,1.2,0.7,1.7,0.7c0.5,0,1-0.1,1.2-0.2C91,97.5,91.1,97.4,91.1,97.4L91.1,97.4z" />
	<path class="st4"
		d="M60.9,180c0,0.1-3.1,0-7-0.1c-3.9-0.2-7-0.3-7-0.4c0-0.1,3.1,0,7,0.1C57.8,179.8,60.9,180,60.9,180z" />
	<path class="st4" d="M94.4,177.8c0,0-0.2,0-0.6,0.1c-0.4,0-1,0.1-1.6,0.1c-1.4,0.1-3.3,0.2-5.3,0.3c-2.1,0.1-4,0.2-5.3,0.2
	c-0.6,0-1.2,0-1.6,0c-0.4,0-0.6,0-0.6,0s0.2,0,0.6-0.1c0.4,0,1-0.1,1.6-0.1c1.4-0.1,3.3-0.2,5.3-0.3c2.1-0.1,3.9-0.2,5.3-0.2
	c0.6,0,1.2,0,1.6,0C94.2,177.8,94.4,177.8,94.4,177.8z" />
	<path class="st4" d="M68.2,97.8c0,0,0,0.1,0,0.2c0,0.2,0,0.4,0,0.6c0,0.6,0,1.4,0,2.4c0,2.1-0.2,5.2-0.3,9
	c-0.2,3.8-0.4,8.3-0.6,13.3c-0.2,2.5-0.3,5.1-0.5,7.9c-0.1,1.4-0.2,2.8-0.4,4.2c-0.2,1.4-0.5,2.8-0.8,4.2
	c-2.5,11.4-5.2,21.4-7.3,28.7c-1.1,3.7-2,6.5-2.7,8.5c-0.4,1-0.6,1.8-0.8,2.3c-0.1,0.3-0.2,0.4-0.2,0.6c0,0.1-0.1,0.2-0.1,0.2
	c0,0,0-0.1,0.1-0.2c0-0.2,0.1-0.3,0.2-0.6c0.2-0.6,0.4-1.3,0.7-2.3c0.6-2,1.6-4.9,2.6-8.6c2.1-7.3,4.8-17.4,7.2-28.7
	c0.3-1.4,0.6-2.8,0.8-4.2s0.3-2.8,0.4-4.2c0.2-2.7,0.4-5.4,0.5-7.9c0.3-5,0.5-9.5,0.7-13.3c0.2-3.8,0.3-6.9,0.4-9
	c0-1.1,0.1-1.9,0.1-2.4C68.1,98.2,68.1,97.9,68.2,97.8c-0.1-0.1-0.1-0.2-0.1-0.2L68.2,97.8z" />
	<path class="st4" d="M87.8,178.2c0,0,0-0.1,0-0.2s0-0.3,0-0.6c0-0.6-0.1-1.3-0.2-2.3c-0.1-2-0.3-4.8-0.5-8.3
	c-0.4-7-0.9-16.7-1.3-27.4c-0.4-10.7-0.7-20.4-1-27.5c-0.1-3.5-0.2-6.3-0.2-8.3c0-1,0-1.7,0-2.3c0-0.2,0-0.4,0-0.6
	c0-0.1,0-0.2,0-0.2s0,0.1,0,0.2c0,0.2,0,0.3,0,0.6c0,0.6,0.1,1.3,0.1,2.3c0.1,2,0.2,4.8,0.3,8.3c0.3,7,0.6,16.7,1.1,27.5
	c0.4,10.7,0.9,20.4,1.2,27.4c0.2,3.5,0.3,6.3,0.4,8.3c0,0.9,0.1,1.7,0.1,2.3c0,0.2,0,0.4,0,0.6c0,0.1,0,0.2,0,0.2H87.8z" />
	<path class="st4" d="M76,37.1c0,0,0,0.6,0,1.5c0,0.9-0.1,2.2-0.4,3.7v0.2l-0.2-0.1c-0.3-0.2-0.7-0.4-1-0.6c-1.5-0.9-2.7-1.8-3.7-2.5
	c-0.9-0.7-1.5-1.1-1.5-1.1s0.6,0.3,1.6,0.9c1,0.6,2.2,1.5,3.7,2.4c0.4,0.2,0.7,0.4,1,0.6l-0.2,0.1c0.3-1.4,0.4-2.7,0.4-3.7
	c0.1-0.9,0.1-1.5,0.2-1.5L76,37.1z" />
	<path class="st4" d="M79.6,38.3c0,0-0.1,0.6-0.3,1.4c-0.1,0.4-0.2,0.9-0.4,1.5c-0.1,0.3-0.2,0.6-0.3,0.8c0,0.1-0.1,0.2-0.2,0.2
	c-0.1,0.1-0.3,0.1-0.4,0c-0.2-0.2-0.2-0.3-0.2-0.5c-0.5-1.2-0.9-2.3-1.2-3.2c-0.3-0.8-0.5-1.3-0.4-1.3c0,0,0.3,0.4,0.6,1.3
	c0.4,0.8,0.8,1.9,1.3,3.1c0.1,0.2,0.1,0.3,0.2,0.4c0,0,0.1-0.1,0.1-0.1c0.1-0.3,0.2-0.6,0.3-0.8c0.2-0.6,0.3-1.1,0.4-1.4
	C79.5,38.8,79.6,38.3,79.6,38.3L79.6,38.3z" />
	<path class="st4" d="M77.8,75.7c0-0.3,0-0.7-0.1-1.2c0-1-0.1-2.4-0.2-4.2c-0.2-3.5-0.4-8.4-0.6-13.8s-0.4-10.2-0.5-13.8
	c0-1.7-0.1-3.2-0.1-4.2c0-0.5,0-0.8,0-1.2c0,0.3,0,0.7,0.1,1.2c0,1,0.1,2.4,0.2,4.2c0.2,3.5,0.4,8.4,0.6,13.8
	c0.2,5.4,0.4,10.2,0.5,13.8c0,1.7,0.1,3.2,0.1,4.2C77.8,75.1,77.8,75.4,77.8,75.7z" />
	<path class="st3" d="M84.3,48.6l-4.9,0.1l0,1.1l4.9-0.1L84.3,48.6z" />
	<path class="st4" d="M88.9,65.7c-0.1,0-0.4-3.8-0.7-8.6c-0.3-4.8-0.5-8.6-0.4-8.6c0.1,0,0.4,3.8,0.7,8.6
	C88.8,61.8,89,65.7,88.9,65.7z" />
	<path class="st4" d="M112.2,42.9c0,0.1-1.7-0.2-3.7-0.7c-2-0.5-3.6-0.9-3.6-1c0-0.1,1.7,0.2,3.7,0.7
	C110.6,42.4,112.2,42.8,112.2,42.9z" />
	<path class="st4" d="M106.4,39.4c0.3,0,0.5,0.2,0.5,0.5c0,0.3-0.2,0.5-0.5,0.6c-0.3,0-0.5-0.2-0.5-0.5
	C105.9,39.7,106.1,39.5,106.4,39.4z" />
	<path class="st8" d="M84.2,46.2l-1.8,0l0,1.8l1.8,0L84.2,46.2z" />
	<path class="st8" d="M84.2,45.2l-0.9,0l0,0.9l0.9,0L84.2,45.2z" />
	<path class="st8" d="M110.6,55.6l-0.7,29.6l-44.7-0.2l0.2-30L110.6,55.6z" />
	<path class="st4"
		d="M84.1,85c-0.1,0,0-6.6,0.2-14.7c0.2-8.1,0.4-14.7,0.5-14.7c0.1,0,0,6.6-0.2,14.7C84.3,78.4,84.1,85,84.1,85z" />
	<path class="st4" d="M65.2,84.9c0,0,0.1-0.1,0.2-0.3c0.2-0.2,0.3-0.5,0.5-0.9c0.5-0.8,1.2-1.8,2.1-3.2c1.8-2.7,4.3-6.3,7-10.4
	c2.7-4,5.2-7.7,6.9-10.4c0.9-1.3,1.6-2.4,2.1-3.2c0.2-0.3,0.4-0.7,0.5-0.9c0.1-0.2,0.2-0.3,0.2-0.3s0,0.1-0.2,0.3
	c-0.1,0.2-0.3,0.6-0.5,0.9c-0.5,0.8-1.1,1.9-2,3.2c-1.7,2.7-4.2,6.4-6.9,10.4c-2.7,4-5.2,7.7-7,10.3c-0.9,1.3-1.7,2.3-2.1,3.1
	c-0.3,0.3-0.4,0.6-0.6,0.8C65.3,84.8,65.2,84.9,65.2,84.9L65.2,84.9z" />
	<path class="st4" d="M83.6,85.2c-0.1,0-4.2-6.6-9.2-14.9c-5-8.3-9-15-9-15.1c0.1,0,4.2,6.6,9.2,14.9C79.7,78.4,83.7,85.2,83.6,85.2z
	" />
	<path class="st4" d="M88.8,81.5l7.2,0.2l0-1.5L88.8,80L88.8,81.5z" />
	<path class="st4"
		d="M89.1,78.9c0-0.1,1.5-0.2,3.5-0.1c1.9,0,3.5,0.1,3.5,0.2c0,0.1-1.5,0.2-3.5,0.1C90.7,79.1,89.1,79,89.1,78.9z" />
	<path class="st4" d="M101.6,55.4l-0.3,11.4l-1.5-1.3l-2,1.2L98,55.3L101.6,55.4z" />
	<path class="st12" d="M64.4,52.4c0,0-2.2,15.7-1.1,16.6c5.7,4.9,13.6,7.5,16.4,8.4c0.4-0.1,0.9-0.2,1.4-0.4c0.5-0.2,0.9-0.4,1.3-0.7
	c0.5-0.4,1.1-0.9,1.4-1.3c0.3-0.5,1.1-0.3,1.1,0.2c0,0.6-0.8,1.9-2.4,2.9c0,0,3.6,6,4.7,6.6c1.2,0.6,4.4,2.1,3.9,2.4
	c-0.5,0.3-4.6-0.9-4.6-0.9l-8.2-2.3c0,0-26.9-4.4-25.1-17.2c1.1-7.9,2.3-15,2.7-16.7L64.4,52.4L64.4,52.4z" />
	<path class="st2" d="M55.6,49.1l-2.4,17.1c-0.5,5.3,2.8,9.5,7.4,11.8c7,3.6,17.3,6.1,17.2,6.1c-0.2,0,0.7-7.6,0.7-7.6
	S64.1,70,63.6,67.2c-0.5-2.8,1.9-14.5,1.9-14.5L55.6,49.1L55.6,49.1z" />
	<path class="st4" d="M77.9,84.2c0,0,0,0,0-0.1c0-0.1,0-0.2,0-0.4c0-0.4,0.1-0.9,0.1-1.5c0.1-1.3,0.3-3.3,0.5-5.6v0.1
	c-2-1.1-4.5-2.3-7.3-3.7c-0.7-0.3-1.4-0.7-2.1-1.1c-0.7-0.4-1.4-0.8-2.1-1.3c-0.7-0.5-1.4-1-2.1-1.6c-0.3-0.3-0.6-0.6-1-0.9
	c-0.2-0.2-0.3-0.3-0.4-0.6c0-0.1-0.1-0.2-0.1-0.3c0-0.1-0.1-0.2-0.1-0.3c-0.2-1.9,0.3-3.7,0.5-5.3c0.3-1.7,0.5-3.3,0.8-4.9
	c0.5-3.1,1-5.9,1.4-8.3c0.2-1.2,0.4-2.2,0.4-3.2s-0.2-1.7-0.5-2.3c-0.3-0.6-0.6-1-0.9-1.2c-0.3-0.2-0.4-0.3-0.4-0.3
	c0,0,0.2,0.1,0.4,0.3c0.3,0.2,0.6,0.6,0.9,1.2c0.3,0.6,0.5,1.4,0.5,2.4s-0.2,2-0.3,3.2c-0.4,2.4-0.9,5.1-1.3,8.3
	c-0.3,1.6-0.5,3.2-0.8,4.9c-0.1,0.4-0.2,0.8-0.2,1.3c-0.1,0.4-0.2,0.8-0.2,1.3c-0.1,0.9-0.2,1.8-0.1,2.7c0,0.1,0,0.2,0.1,0.3
	c0,0.1,0.1,0.2,0.1,0.3c0.1,0.2,0.2,0.3,0.4,0.5c0.3,0.3,0.6,0.6,1,0.9c0.6,0.6,1.3,1.1,2,1.6c0.7,0.4,1.4,0.9,2.1,1.3
	c0.7,0.4,1.4,0.7,2.1,1.1c2.7,1.4,5.2,2.7,7.3,3.7h0.1v0.1c-0.2,2.3-0.4,4.3-0.5,5.6c-0.1,0.7-0.1,1.2-0.2,1.5
	C77.9,84,77.9,84.2,77.9,84.2c0,0.2,0,0.2,0,0.2V84.2z" />
	<path class="st4" d="M76.5,75.5c0,0,0,0.4-0.1,1.2c-0.1,0.7-0.2,1.7-0.4,2.8c-0.2,1.1-0.4,2-0.6,2.8c-0.2,0.7-0.3,1.1-0.4,1.1
	s0.3-1.8,0.7-3.9C76.1,77.2,76.4,75.5,76.5,75.5z" />
	<path class="st4" d="M77.9,84.2c0,0-0.1,0-0.3,0c-0.2,0-0.4-0.1-0.7-0.2c-0.6-0.2-1.5-0.4-2.6-0.7c-2.2-0.6-5.3-1.4-8.6-2.7
	c-1.7-0.6-3.1-1.3-4.5-2.1c-1.3-0.8-2.5-1.6-3.4-2.3c-0.9-0.7-1.6-1.4-2-1.9c-0.2-0.2-0.4-0.4-0.5-0.6c-0.1-0.1-0.2-0.2-0.2-0.2
	s0.3,0.3,0.7,0.7c0.5,0.4,1.2,1.1,2.1,1.8c0.9,0.7,2.1,1.4,3.4,2.2c1.3,0.7,2.8,1.4,4.5,2c3.3,1.3,6.3,2.1,8.5,2.8
	c1.1,0.3,1.9,0.6,2.6,0.8c0.3,0.1,0.5,0.2,0.7,0.2C77.8,84.2,77.9,84.3,77.9,84.2L77.9,84.2z" />
	<path class="st4"
		d="M78,77.3c0,0.3-0.2,0.5-0.5,0.5c-0.3,0-0.5-0.2-0.5-0.5c0-0.3,0.2-0.5,0.5-0.5C77.8,76.9,78,77.1,78,77.3z" />
</svg>
