<?xml version="1.0" encoding="utf-8"?><!-- Generator: Adobe Illustrator 27.0.0, SVG Export Plug-In . SVG Version: 6.00 Build 0)  -->
<svg version="1.1" id="Layer_1" xmlns="http://www.w3.org/2000/svg" x="0px" y="0px" viewBox="0 0 211 225.8"
	style="enable-background:new 0 0 211 225.8;" xml:space="preserve">
<style type="text/css">
	.st0{fill:#0A0F14;}
	.st1{fill:url(#SVGID_1_);}
	.st2{fill:#263238;}
	.st3{fill:#FFBF9D;}
	.st4{fill:#FF9A6C;}
	.st5{fill:#455A64;}
	.st6{fill:#FFFFFF;}
	.st7{opacity:0.2;}
	.st8{fill:#FF725E;}
	.st9{opacity:0.3;}
	.st10{fill:url(#SVGID_00000152950553908753244070000002072259151566512283_);}
	.st11{fill:url(#SVGID_00000031896626423842523410000008662445205197986469_);}
</style>
	<path class="st0"
		d="M103.5,225.8c56.4,0,102.2-5.8,102.2-13s-45.7-13-102.2-13c-56.4,0-102.2,5.8-102.2,13S47,225.8,103.5,225.8z" />
	<linearGradient id="SVGID_1_" gradientUnits="userSpaceOnUse" x1="45.2441" y1="95.11" x2="156.36"
		y2="95.11" gradientTransform="matrix(1 0 0 -1 0 220)">
	<stop offset="0" style="stop-color:#CC0022" />
		<stop offset="0.3" style="stop-color:#A2005A" />
		<stop offset="0.6" style="stop-color:#830082" />
		<stop offset="0.9" style="stop-color:#70009B" />
		<stop offset="1" style="stop-color:#6A00A5" />
</linearGradient>
	<path class="st1" d="M135.5,104.7l8.9,52.4l6.8-1.2l-4.4-26l-4.3-25.6l-0.1-0.6c0.1,0,0.2,0,0.3,0.1c0.2,0,0.3,0,0.5,0
	c0.1,0,0.3,0.1,0.4,0.1c0.9,0.1,1.7-0.4,2-1.2c0.3-0.4,0.6-0.8,0.8-1.3c0.1,0,1.6-0.4,2.7,1l4.1,0.8c0.2,0.2,0.4,0.3,0.7,0.4
	c0.5,0.1,0.9-0.3,1-0.9c0.1-0.5-0.3-1-0.8-1c-0.3,0-0.5,0-0.7,0.2l-2.8-1.3c0,0-0.5-0.7-0.8-0.7c-0.3,0-2.1-0.6-2.1-0.6v-0.3
	l1.3,0.2v-0.6c0.1,0,1.2-0.1,1.2-0.1c0.1,0.2,0.3,0.3,0.5,0.3c0.4,0,0.8-0.3,0.8-0.7c0-0.5-0.3-0.8-0.7-0.9c0,0-0.1,0-0.2,0
	l-3.6-0.5c0,0-1.5-0.5-2.5-0.7l-1.5-2.3l-0.7,0.2c0,0-1-1.7-2.6-1c-1.6,0.7-0.9,2.4-0.9,2.4c0.3,0.3,0.5,0.4,0.5,0.4
	s0.3,0.8,0.5,1.4l-5,1.1c-0.5,0.1-0.8,0.6-0.7,1.1l1.1,5.4L135.5,104.7z" />
	<path class="st2" d="M76.9,27.9c0.3-1.4,1.8-2.4,3.1-2c-1-1.5-0.4-3.9,1.3-4.5c1.6-0.7,3.7,0.5,4,2.3c1.3-2.4,4.4-3.6,6.8-2.4
	c2.4,1.2,3.6,4.5,2.5,7l-1.3,10.2c-0.5,1.1-3.4,4.4-4.6,4.4c-1.2,0-2.4-0.6-3-1.6C84.5,42,83,41.8,82,40.7c-0.9-1-1.1-2.6-0.4-3.8
	c-0.7,0.8-2,0.7-2.8,0s-1-1.9-0.9-3c0.2-1.1,0.6-2,1.1-3C77.7,30.8,76.6,29.3,76.9,27.9L76.9,27.9z" />
	<path class="st2" d="M88.3,9.4c2.6-3.9,6.3-6.2,10.9-6.6c2.6-0.2,3.7,0.2,5.5,0.6c1.9,0.4,3.6,1.3,4.8,2.8c1.4,1.8,2.7,3.9,3.1,6.2
	c0.4,2.4,0.8,4.8,0.8,7.2s-0.5,4.9-1.7,6.9l-5.8,1.5c-3.2,0.3-6.6,0.7-9.8,0.2c-3.2-0.6-6.4-2.1-8.3-4.9
	C85.1,19.5,85.6,13.2,88.3,9.4z" />
	<path class="st3" d="M93.5,9l7.7-3.8l2.1,0.1c4.6-0.3,8.1,4.8,8.5,8.6c0.3,4.3,0.5,9.6,0.1,12.8c-0.9,6.5-6.1,7.4-6.1,7.4l-0.2,6.2
	l-5.8,4l-5.2-6.6l-2.8-26.4C91.6,10,92.5,9,93.5,9L93.5,9z" />
	<path class="st4" d="M102.4,25.9c0-0.3,0.2-0.6,0.4-0.9c0.4-0.5,1.1-0.5,1.6-0.2c0.5,0.3,0.8,1,0.8,1.7c-0.3,0.4-0.7,0.7-1.1,0.8
	c-0.1,0-0.2,0-0.2,0c-0.4,0-0.7-0.1-1-0.3C102.6,26.7,102.4,26.3,102.4,25.9z" />
	<path class="st2" d="M110.3,20c0,0.5-0.3,0.8-0.8,0.9c-0.4,0-0.8-0.3-0.8-0.7c0-0.5,0.3-0.8,0.8-0.9C109.9,19.3,110.3,19.6,110.3,20
	z" />
	<path class="st2" d="M110.4,16.2c-0.1,0.1-0.7-0.3-1.6-0.3c-0.9,0-1.5,0.5-1.6,0.3c0,0,0-0.2,0.3-0.5c0.3-0.2,0.7-0.4,1.3-0.4
	c0.5,0,1,0.2,1.3,0.4C110.3,15.9,110.5,16.1,110.4,16.2z" />
	<path class="st2" d="M105.3,23.5c0,0,0.5-0.2,1.4-0.3c0.2,0,0.4-0.1,0.4-0.2c0-0.2,0-0.4-0.2-0.7c-0.2-0.6-0.4-1.1-0.7-1.7
	c-0.9-2.4-1.6-4.5-1.5-4.5c0.1,0,0.9,1.9,1.9,4.4c0.2,0.6,0.4,1.2,0.7,1.8c0.1,0.3,0.2,0.6,0.1,0.9c-0.1,0.2-0.2,0.3-0.4,0.3
	c-0.2,0-0.3,0-0.4,0.1C105.8,23.6,105.3,23.6,105.3,23.5L105.3,23.5z" />
	<path class="st4"
		d="M105.6,34.1c0,0-4.2,0.3-8.4-2.2c0,0,2.1,4.8,8.3,4.1L105.6,34.1L105.6,34.1z" />
	<path class="st2" d="M102.8,24.2c0.2,0,0.2,1,1,1.6c0.8,0.7,1.8,0.6,1.8,0.7c0,0.1-0.2,0.2-0.7,0.2c-0.4,0-1-0.1-1.5-0.5
	c-0.5-0.4-0.7-1-0.8-1.4C102.6,24.5,102.7,24.2,102.8,24.2L102.8,24.2z" />
	<path class="st2" d="M109.9,13c-0.2,0.2-0.8,0.1-1.6,0.2c-0.8,0-1.4,0.3-1.6,0.1c-0.1-0.1,0-0.3,0.3-0.5c0.3-0.2,0.7-0.5,1.3-0.5
	s1,0.1,1.3,0.3C109.8,12.8,110,13,109.9,13L109.9,13z" />
	<path class="st2" d="M101.3,20.1c0,0.5,0.4,0.8,0.8,0.8c0.4,0,0.8-0.3,0.8-0.8c0-0.5-0.4-0.8-0.8-0.8
	C101.6,19.3,101.2,19.6,101.3,20.1z" />
	<path class="st2" d="M98.8,16.6c0.1,0.1,0.7-0.4,1.5-0.5c0.9,0,1.5,0.4,1.6,0.2c0,0-0.1-0.2-0.3-0.5c-0.3-0.2-0.8-0.3-1.3-0.3
	c-0.5,0-1,0.3-1.2,0.5C98.8,16.3,98.7,16.5,98.8,16.6L98.8,16.6z" />
	<path class="st2" d="M99.1,13.7c0.2,0.2,0.8,0,1.6-0.1c0.8-0.1,1.5,0.1,1.6-0.2c0.1-0.1,0-0.3-0.4-0.5c-0.3-0.2-0.8-0.3-1.4-0.3
	s-1,0.2-1.3,0.5C99.1,13.4,99,13.6,99.1,13.7L99.1,13.7z" />
	<path class="st2" d="M92.1,20.4l1.1,1.1c4.3-4.9,12.7-17.1,12.2-16.4c0,0-3.3-1.1-6.7-0.3c-3.4,0.9-9.8,3.1-9.5,7.3
	C89.7,16.3,92.1,20.4,92.1,20.4z" />
	<path class="st3"
		d="M93.3,22.1c0-0.5-0.5-1.6-1-1.7c-1.2-0.2-3.4,0-3.4,3.2c0,4.4,4.3,3.5,4.3,3.3C93.2,26.8,93.4,23.7,93.3,22.1z" />
	<path class="st4" d="M92,25.3c0,0-0.1,0-0.2,0.1c-0.1,0.1-0.3,0.1-0.5,0c-0.4-0.2-0.8-0.9-0.9-1.7c0-0.4,0.1-0.8,0.2-1.1
	c0.1-0.3,0.3-0.6,0.5-0.6s0.4,0.1,0.4,0.2c0.1,0.1,0,0.2,0,0.2s0.1-0.1,0.1-0.3c0-0.1-0.1-0.2-0.2-0.3c-0.1-0.1-0.3-0.1-0.4-0.1
	c-0.3,0-0.6,0.3-0.8,0.7c-0.2,0.3-0.3,0.8-0.3,1.2c0,0.9,0.5,1.7,1.1,1.9c0.3,0.1,0.5,0,0.7-0.1c0.1-0.1,0.2-0.2,0.2-0.2H92z" />
	<path class="st5" d="M86,19.1c0,0,0-0.3,0-0.8c0-0.5,0-1.2,0.1-2.1c0.2-1.8,0.8-4.2,2.2-6.5c1.4-2.3,3.3-3.9,4.8-4.8
	c0.7-0.5,1.4-0.8,1.8-1c0.4-0.2,0.7-0.3,0.7-0.3c0,0-0.1,0-0.2,0S95,3.7,94.8,3.7c-0.4,0.2-1.1,0.5-1.9,0.9
	c-1.5,0.9-3.4,2.5-4.9,4.8c-1.4,2.3-2,4.8-2.2,6.6c-0.1,0.9-0.1,1.6,0,2.2c0,0.2,0,0.5,0.1,0.6C85.9,18.9,85.9,19.1,86,19.1L86,19.1
	z" />
	<path class="st2"
		d="M82.5,66.8c-0.4,0,4.3-31.3,13.5-29.3c0,0-5.2,3.5-8.2,12.8c-2.6,8.1-3.2,16.5-3.2,16.5H82.5L82.5,66.8z" />
	<path class="st3" d="M99.9,176.7c0,0.3-0.2,15.1-0.2,15.1l6.5-0.5l1.7-2.6L109,177L99.9,176.7z" />
	<path class="st2" d="M119.5,198.8c0,0-3.4,1.4-6.5,1.4c-3.1,0-7.6-0.7-9.3-1c-1.7-0.2-6.4,0.7-6.9-1s2.4-8.5,2.4-8.5
	s0.7,1.9,2.3,1.7c1.6-0.2,4.8-1.4,4.8-1.4s1.2-2.4,2.2-2.6c0.9-0.2,0.9,2.7,0.9,2.7s2.6,3.2,4.3,3.8c1.6,0.6,1.7,1.1,3.6,1
	c1.9-0.1,2.8,0.5,2.8,0.5s1,1.5,0.6,2.1C120.3,198.2,119.5,198.7,119.5,198.8L119.5,198.8z" />
	<path class="st5" d="M120.7,197.6c-0.3,0.7-1.2,1.2-1.2,1.2s-3.4,1.4-6.5,1.4c-3.1,0-7.6-0.7-9.3-1c-1.7-0.2-6.4,0.7-6.9-1
	c-0.1-0.5-0.2-1,0-1.5c0,0,5,1,7.3,0.7c2.4-0.2,7.4,1,10.1,0.8c2.6-0.2,5.6-1.2,5.6-1.2l0.8-0.6c0.1,0.4,0.3,0.7,0.1,1V197.6z" />
	<path class="st6" d="M113,193.6c0,0,0,0.5-0.3,0.9c-0.2,0.5-0.5,0.8-0.5,0.8c0,0,0.4-0.2,0.7-0.7C113.1,194,113.1,193.5,113,193.6
	L113,193.6z" />
	<path class="st6" d="M111.4,192.3c0,0-0.1,0.5-0.4,1.1c-0.3,0.6-0.7,0.9-0.7,0.9c0,0,0.5-0.2,0.8-0.8
	C111.4,192.9,111.4,192.3,111.4,192.3L111.4,192.3z" />
	<path class="st6" d="M110.2,191c0,0-0.2,0.3-0.5,0.8c-0.3,0.4-0.6,0.7-0.6,0.7c0,0,0.4-0.2,0.7-0.6
	C110.1,191.5,110.2,191.1,110.2,191L110.2,191z" />
	<path class="st6" d="M101.3,195.4c0,0,0.2,0,0.7,0.1c0.4,0,0.9,0,1.5,0c0.6,0,1.1-0.1,1.5-0.1c0.4,0,0.7-0.1,0.6-0.1
	c0,0-1,0-2.2,0.1C102.3,195.4,101.3,195.4,101.3,195.4L101.3,195.4z" />
	<path class="st3"
		d="M76.8,170.1c-0.1-1.2-9.7,11.3-9.7,11.3l5.2,4l3-0.8l8.3-8.1L76.8,170.1L76.8,170.1z" />
	<path class="st2" d="M77.7,200.2c0,0-3.4-1.3-5.7-3.3c-2.3-2.1-5.3-5.7-6.4-7c-1.1-1.3-5.3-3.8-4.6-5.4c0.7-1.6,7.1-4.8,7.1-4.8
	s-0.7,1.9,0.7,2.8c1.4,1,4.5,2.2,4.5,2.2s2.4-1,3.2-0.5c0.8,0.5-1,2.6-1,2.6s0,4.2,0.8,5.7c0.9,1.6,0.7,2,2.1,3.2
	c1.5,1.2,1.8,2.3,1.8,2.3s-0.2,1.8-0.9,2C78.8,200.3,77.8,200.2,77.7,200.2L77.7,200.2z" />
	<path class="st5" d="M79.4,200.1c-0.7,0.3-1.6,0.1-1.6,0.1s-3.4-1.3-5.7-3.3c-2.3-2.1-5.3-5.7-6.4-7c-1.1-1.3-5.3-3.8-4.6-5.4
	c0.2-0.5,0.5-0.9,0.9-1.1c0,0,3.2,4.1,5.1,5.5c1.9,1.4,5,5.8,7.2,7.4c2.1,1.6,4.9,2.9,4.9,2.9l1,0.1
	C79.8,199.6,79.8,199.9,79.4,200.1L79.4,200.1z" />
	<path class="st6" d="M76.1,191.8c0,0-0.3,0.3-0.8,0.5c-0.4,0.2-0.9,0.2-0.9,0.3c0,0,0.4,0.1,1-0.1C75.9,192.3,76.2,191.8,76.1,191.8
	L76.1,191.8z" />
	<path class="st6" d="M75.6,189.8c0,0-0.4,0.3-1,0.6c-0.6,0.2-1.1,0.2-1.1,0.2c0,0,0.5,0.2,1.1,0C75.3,190.3,75.6,189.9,75.6,189.8
	L75.6,189.8z" />
	<path class="st6" d="M75.5,188c0,0-0.4,0.1-0.9,0.2c-0.5,0.1-0.9,0.1-0.9,0.2c0,0,0.4,0.1,0.9,0C75.1,188.3,75.5,188.1,75.5,188
	L75.5,188z" />
	<path class="st6" d="M66,185.3c0,0,0.2,0.2,0.4,0.5c0.3,0.3,0.7,0.7,1.1,1.1c0.5,0.4,0.9,0.7,1.3,1c0.3,0.2,0.5,0.3,0.5,0.3
	s-0.8-0.6-1.7-1.4C66.8,186,66.1,185.3,66,185.3L66,185.3z" />
	<path class="st2" d="M86.8,109.6c-0.3,1,2.5,5,2.8,8c0.3,3,3.4,23.5,3.4,23.5s-0.3,1.2,0,2.8c0,0-13.5,14.9-20.8,29.7l9.3,8.2
	c0,0,13-20.3,19.8-26.8c0,0,6.7-12.5,6.3-12.3c-0.4,0.1-0.5-30.4-0.5-30.4L86.8,109.6L86.8,109.6z" />
	<path class="st2" d="M89.5,107.8c0.1,0.8,5.4,4.5,6.8,7.4c1.4,2.9,4.3,26.7,3.9,29.8c-0.4,3.2-1.4,39.2-1.4,39.2l14.5,0.6
	c0,0,1.1-33.8,1.7-39.2c0.7-5.4,3.8-32.8,3.8-33.9S89.5,107.8,89.5,107.8z" />
	<path class="st5" d="M89.5,107.8c0,0,0.2,0,0.5,0c0.3,0,0.8,0.1,1.4,0.1c1.3,0.1,3.2,0.3,5.6,0.6c2.4,0.2,5.4,0.6,8.8,1
	c1.7,0.2,3.6,0.4,5.5,0.7c1.9,0.3,4,0.5,6.1,1c0.3,0,0.5,0.1,0.8,0.2c0.1,0,0.3,0.1,0.4,0.1c0.1,0,0.1,0,0.2,0.1c0,0,0.1,0,0.1,0.1
	c0,0,0,0.1,0,0.1c0,0,0,0,0,0.1c0,0.6-0.1,1.1-0.2,1.8c-0.1,1.2-0.3,2.4-0.4,3.6c-0.3,2.4-0.5,5-0.8,7.6c-0.6,5.3-1.3,10.9-1.9,16.8
	c-0.2,1.5-0.3,2.9-0.5,4.5c-0.2,1.5-0.2,3.1-0.3,4.6c-0.2,3.1-0.3,6.3-0.4,9.5c-0.3,6.5-0.5,13.2-0.8,20c0,1.6-0.1,3.1-0.2,4.7v0.2
	h-0.2c-5-0.2-9.8-0.5-14.5-0.6h-0.2v-0.2c0.3-11.3,0.7-22,1-31.6c0.1-2.4,0.2-4.7,0.3-7c0.1-1.1,0.1-2.2,0-3.3
	c-0.1-1.1-0.2-2.2-0.2-3.2c-0.4-4.2-0.9-8.1-1.3-11.6c-0.5-3.5-0.9-6.7-1.5-9.4c-0.1-0.7-0.3-1.4-0.4-2c-0.1-0.3-0.2-0.6-0.3-0.9
	c-0.1-0.3-0.3-0.5-0.4-0.8c-0.7-1-1.4-1.8-2.1-2.4c-1.4-1.4-2.5-2.3-3.2-3c-0.4-0.3-0.7-0.6-0.8-0.8c-0.1-0.1-0.1-0.2-0.2-0.2
	c0-0.1,0-0.1,0-0.1s0,0,0,0.1c0,0,0.1,0.1,0.2,0.2c0.2,0.2,0.4,0.5,0.8,0.8c0.7,0.7,1.9,1.6,3.3,2.9c0.7,0.7,1.4,1.4,2.1,2.4
	c0.2,0.2,0.3,0.5,0.5,0.8c0.1,0.3,0.2,0.6,0.3,0.9c0.2,0.6,0.3,1.3,0.5,2c0.5,2.7,1,5.9,1.5,9.4c0.5,3.5,1,7.4,1.4,11.6
	c0.1,1.1,0.2,2.1,0.3,3.2c0,0.6,0.1,1.1,0.1,1.6s0,1.1-0.1,1.7c-0.2,2.3-0.2,4.6-0.3,7c-0.4,9.6-0.7,20.3-1,31.6l-0.1-0.2
	c4.7,0.2,9.6,0.4,14.5,0.6l-0.2,0.2c0-1.5,0.1-3.1,0.2-4.7c0.2-6.9,0.5-13.6,0.8-20c0.2-3.2,0.3-6.4,0.4-9.5
	c0.1-1.5,0.2-3.1,0.3-4.6c0.2-1.5,0.3-3,0.5-4.5c0.7-5.9,1.3-11.5,1.9-16.8c0.3-2.6,0.6-5.2,0.9-7.6c0.1-1.2,0.3-2.4,0.4-3.6
	c0.1-0.6,0.1-1.2,0.2-1.7c0.1,0-0.1-0.1-0.2-0.2c-0.1,0-0.3-0.1-0.4-0.1c-0.3-0.1-0.5-0.1-0.8-0.2c-2.1-0.5-4.2-0.7-6.1-1
	c-1.9-0.3-3.8-0.5-5.5-0.7c-3.4-0.4-6.3-0.7-8.8-1c-2.4-0.3-4.3-0.5-5.6-0.6c-0.7-0.1-1.1-0.1-1.4-0.2
	C89.6,108,89.4,107.9,89.5,107.8L89.5,107.8z" />
	<g class="st7">
	<path d="M100.2,143.9l-5.8-27l-6.4-6.4l30.9,0.5l-0.1,2.3H98c0,0.1-1.3,3.1-1.3,3.1s2.5,15.5,2.8,18.9
		C99.9,138.8,100.3,143.9,100.2,143.9L100.2,143.9z" />
</g>
	<path class="st8" d="M91.2,38.7c-0.8,0.5-3.6,13.1-2.8,17.6c0.9,5.2,2.8,25.6,2.2,27.5c-0.6,1.8-5.2,25.7-5.2,25.7
	c1.7,2.3,36.3,3.9,37.4,2.4c1.1-1.5-1.7-21.2-2.1-27.1c-0.3-5.8-2.2-25.5-4.9-29.6c-2.7-4.1-11.1-16.2-11.9-17.5
	c-0.9-1.3-6.1-5-10.5-5l0.1,3.4l-2.2,2.7V38.7z" />
	<g class="st7">
	<path d="M88,96.5c3-1.4,5.1-4.3,6.3-7.4c1.3-3.1,1.7-6.5,2.2-9.9l-7.3,8.6L88,96.5L88,96.5z" />
</g>
	<path class="st2" d="M120.7,80.9c0,0-0.1-0.1-0.3-0.3c-0.2-0.2-0.4-0.5-0.8-1c-0.3-0.5-0.7-1-1.1-1.6s-0.6-1.5-0.9-2.4
	c-1.2-3.7-2.9-8.7-4.8-14.2c-0.6-1.8-1.1-3.5-1.7-5.1c-0.3-0.8-0.5-1.6-0.8-2.4c-0.1-0.2-0.2-0.4-0.2-0.6c0-0.2,0-0.5,0.1-0.6
	c0.2-0.4,0.6-0.6,1-0.6v0.2c-1-0.8-1.9-1.6-2.7-2.3c-1-2-1.9-3.7-2.5-4.9c-0.3-0.6-0.5-1-0.7-1.4c-0.2-0.3-0.2-0.5-0.2-0.5
	c0.4,0.7,1.5,2.8,3.4,6.6c0.8,0.7,1.7,1.4,2.7,2.2l0.3,0.2h-0.4c-0.3,0-0.7,0.2-0.8,0.5c-0.1,0.2-0.1,0.3-0.1,0.5s0.1,0.3,0.2,0.6
	c0.3,0.7,0.5,1.5,0.8,2.4c0.5,1.6,1.1,3.3,1.7,5.1c1.8,5.6,3.5,10.6,4.7,14.2c0.3,0.9,0.5,1.8,0.9,2.4c0.4,0.7,0.7,1.2,1,1.6
	c0.3,0.4,0.5,0.7,0.7,1c0.2,0.2,0.3,0.3,0.2,0.3V80.9z" />
	<path class="st2" d="M102,92c0,0,0.1,0,0.4,0c0.2,0,0.6-0.1,1-0.2c0.9-0.2,2.2-0.6,3.8-1.1s3.4-1.1,5.5-1.9c1-0.3,2.1-0.7,3.3-1.1
	l0.4-0.1c0.1,0,0.1,0,0.2-0.1c0.1,0,0,0,0,0.1c-0.1-0.2-0.3-0.5-0.5-0.7c-0.4-0.5-0.8-1-1.2-1.5c-0.4-0.5-0.9-1-1.3-1.4
	c-0.1-0.1-0.2-0.2-0.3-0.3c-0.1,0-0.1-0.1-0.2-0.1c-0.1,0-0.1,0-0.2,0c-0.3,0-0.5,0.1-0.8,0.1c-1.1,0.3-2.2,0.7-3.2,1.1
	c-2,0.8-3.8,1.6-5.4,2.3c-0.2,0.1-0.4,0.2-0.5,0.3c-0.2,0.1-0.3,0.2-0.4,0.3c-0.2,0.3-0.3,0.7-0.3,1c-0.1,0.7-0.2,1.2-0.2,1.7
	c0,0.5,0,0.9,0,1.1c0,0.2,0,0.4,0,0.4s0-0.1,0-0.4c0-0.2,0-0.6,0-1.1c0-0.5,0-1.1,0.1-1.8c0.1-0.3,0.1-0.7,0.3-1.1
	c0.1-0.2,0.3-0.3,0.5-0.4c0.2-0.1,0.3-0.2,0.5-0.3c1.5-0.8,3.3-1.6,5.4-2.4c1-0.4,2.1-0.9,3.3-1.1c0.3-0.1,0.6-0.2,0.9-0.2
	c0.1,0,0.2,0,0.3,0.1c0.1,0,0.1,0.1,0.2,0.2c0.1,0.1,0.2,0.2,0.4,0.3c0.4,0.5,0.9,0.9,1.3,1.4c0.4,0.5,0.8,1,1.3,1.5
	c0.2,0.3,0.4,0.5,0.5,0.9c0,0,0,0.1,0,0.2c0,0.2-0.2,0.2-0.2,0.2s-0.1,0-0.2,0l-0.4,0.1c-1.1,0.4-2.2,0.7-3.3,1.1
	c-2.1,0.7-3.9,1.3-5.5,1.8c-1.6,0.5-2.9,0.9-3.8,1c-0.4,0.1-0.8,0.1-1,0.1c-0.3,0-0.4-0.1-0.4-0.1L102,92z" />
	<g class="st9">
	<path d="M92.5,59.3c0,0,4.4,19.7,9.5,25.7c5,6,19.7,9.7,19.7,9.7l-1-9.8L92.5,59.3L92.5,59.3z" />
</g>
	<path class="st2"
		d="M93.5,79.7l5.5-10c0,0,1.7,3.1,1.2,3.2c-0.5,0.2-4,7.5-4.1,7.6C96.1,80.6,93.5,79.7,93.5,79.7z" />
	<path class="st3" d="M127.5,86c0.5,0.2,5.8,2.8,5.8,2.8s5.6-1.1,7.5-0.7c1.9,0.5,1.5,1.5,1.5,1.5s2.6,4,2.1,4.9
	c-0.4,0.9-0.9,2-1.5,1.7c0,0-0.2,0.9-1.3,1.1c-1.1,0.2-3.3,0.4-3.5-0.3c-0.2-0.7,0.1-1.2,0.4-1.2c0.3,0,3.2,0,3.2,0s1.3-1.2,0.9-2
	c-0.3-0.9-2.1-1.2-2.1-1.2s-2.8,1.8-5.3,2.4c-2.5,0.6-4.6-1.2-4.6-1.2l-6.1-2.2l3-5.4V86z" />
	<path class="st8" d="M92.1,56.9c1.4,12,9,22.6,12.2,27.2c3.2,4.5,19.7,8.5,19.7,8.5l4.5-7.3c0,0-8.9-6.2-11.9-10.2
	c-3-3.9-8.1-21.7-8.4-22.8c-0.3-1.2-0.2-17.2-9.5-16.2C89.6,37.1,91.9,55.1,92.1,56.9z" />
	<path class="st2" d="M92.1,56.9c0,0-0.4-2-0.5-5.6c0-1.8,0-4,0.4-6.6c0.2-1.2,0.5-2.6,1.1-4c0.5-1.4,1.4-2.8,2.8-3.7
	c0.7-0.5,1.5-0.8,2.5-1c0.9-0.2,1.9-0.2,2.7,0c0.9,0.2,1.8,0.7,2.5,1.3c0.7,0.6,1.3,1.4,1.8,2.2c1,1.7,1.6,3.6,2,5.6
	c0.4,2,0.7,4.1,0.8,6.2c0,0.3,0,0.6,0.1,0.8l0.2,0.8c0.2,0.5,0.3,1,0.4,1.6c0.3,1.1,0.7,2.1,1,3.2c0.7,2.2,1.4,4.4,2.1,6.6
	c0.8,2.2,1.6,4.5,2.5,6.7c0.5,1.1,1,2.2,1.6,3.3c0.6,1,1.5,1.9,2.4,2.8c1.5,1.5,3.2,2.9,4.9,4.3c1.7,1.3,3.4,2.6,5,3.8h0.1
	c0,0.1-0.1,0.2-0.1,0.2c-1.5,2.5-3.1,4.9-4.5,7.3v0.1c-0.1,0-0.2,0-0.2,0c-3.8-0.9-7.3-2-10.7-3.2c-1.6-0.6-3.3-1.3-4.8-2
	c-1.5-0.8-3-1.6-4-2.8c-3.7-5-6.5-9.8-8.4-13.9c-1.9-4.1-2.9-7.6-3.4-10c-0.1-0.6-0.2-1.1-0.3-1.6c-0.1-0.5-0.1-0.9-0.2-1.2
	c0-0.3-0.1-0.6-0.1-0.7c0,0.2,0.1,0.4,0.1,0.7c0,0.3,0.1,0.7,0.2,1.2c0.1,0.5,0.2,1,0.3,1.6c0.5,2.4,1.5,5.8,3.5,9.9
	c1.9,4.1,4.8,8.9,8.4,13.8c1,1.1,2.5,2,3.9,2.7c1.5,0.7,3.1,1.4,4.8,2c3.3,1.2,6.9,2.3,10.6,3.2h-0.2c1.5-2.3,3-4.7,4.5-7.3v0.2
	c-1.6-1.2-3.3-2.5-5-3.8c-1.7-1.4-3.3-2.7-4.9-4.3c-0.9-0.9-1.8-1.8-2.5-2.9c-0.7-1.1-1.1-2.2-1.6-3.3c-0.9-2.2-1.7-4.5-2.5-6.7
	c-0.8-2.2-1.5-4.4-2.1-6.6c-0.3-1.1-0.7-2.2-0.9-3.2c-0.2-0.5-0.3-1.1-0.4-1.6l-0.2-0.8c0-0.3-0.1-0.6-0.1-0.8
	c-0.2-2.2-0.4-4.2-0.8-6.2c-0.4-2-1-3.9-2-5.6c-0.5-0.8-1-1.6-1.7-2.2c-0.7-0.6-1.5-1-2.4-1.2c-0.9-0.2-1.8-0.2-2.7-0.1
	c-0.9,0.1-1.7,0.5-2.4,0.9c-1.4,0.9-2.2,2.3-2.8,3.6c-0.6,1.4-0.9,2.7-1.1,4c-0.4,2.6-0.4,4.8-0.4,6.6c0,1.8,0.2,3.2,0.2,4.1
	c0,0.5,0.1,0.9,0.1,1.1c0,0.2,0,0.4,0,0.4L92.1,56.9z" />
	<path class="st2" d="M83.1,63c-0.8,0.1-6.3,2.6-6.4,11.1c-0.1,8.6-2.6,7.4-1.1,13.2c1.5,5.8,5.2,7.1,9.7,5.2
	c4.5-1.9,12-13.2,11.9-14.2c-0.1-1-2.5-2.3-2.5-2.3S91,61.6,83.1,63L83.1,63z" />
	<path class="st2"
		d="M85,65.3c-0.4,0,4.3-31.3,13.5-29.3c0,0-5.2,3.5-8.2,12.8c-2.6,8.1-3.2,16.5-3.2,16.5H85L85,65.3z" />
	<path class="st2" d="M84.7,63.9c-1.4-1.8-3.6-2.9-5.8-2.8c-0.7,0-1.5,0.2-1.9,0.9c-0.5,0.8-0.2,1.9,0.4,2.7c0.6,0.9,1.5,1.6,2.4,2.1
	c0.2,0.1,0.5,0.2,0.8,0.1c0.4-0.2,0.4-0.8,0.2-1.1c-0.3-0.3-0.7-0.5-1.1-0.6c-0.4-0.1-0.8-0.2-1.1-0.5c-0.4-0.5-0.4-1.2,0-1.6
	c0.4-0.5,1-0.7,1.6-0.6c0.6,0.1,1.1,0.5,1.5,1c0.4,0.5,0.7,1.2,1.3,1.5c0.8,0.5,1.9,0,2.7-0.5" />
	<path class="st5" d="M86.2,65c0,0,0.1,0.3,0.2,0.9c0,0.6,0.1,1.4,0.1,2.4c-0.1,2-0.6,4.8-2,7.5c-0.7,1.4-1.5,2.6-2.5,3.5
	c-0.9,1-2.1,1.5-3.1,1.4c-1-0.1-1.7-0.6-2-1.1c-0.2-0.2-0.2-0.5-0.3-0.6c0-0.2,0-0.2,0-0.2s0,0.3,0.4,0.7c0.3,0.4,1,0.9,1.9,1
	c0.9,0.1,2-0.5,2.9-1.4s1.7-2.1,2.4-3.5c1.4-2.7,1.9-5.4,2.1-7.4c0.1-1,0-1.8,0-2.3C86.2,65.4,86.2,65.1,86.2,65L86.2,65z" />
	<path class="st5" d="M82.8,92.7c0,0,0-0.2-0.1-0.6c0-0.3-0.1-0.9-0.1-1.5c0-0.7-0.1-1.4-0.1-2.2c0-0.9-0.1-1.8-0.6-2.5
	c-0.5-0.7-1.5-1-2.2-1.1c-0.8-0.1-1.5,0-2.1,0c-1.3,0.1-2-0.1-2-0.2c0,0,0.2,0,0.5,0c0.3,0,0.8,0,1.4-0.1c0.6,0,1.4-0.2,2.2-0.1
	c0.8,0.1,1.8,0.3,2.4,1.2c0.3,0.4,0.5,0.9,0.5,1.4c0.1,0.5,0.1,0.9,0.1,1.4c0,0.8,0,1.6,0,2.2c0,0.6,0,1.1,0,1.5
	C82.8,92.5,82.8,92.8,82.8,92.7L82.8,92.7z" />
	<path class="st5" d="M80.4,89.1c0,0.1-1,0.3-2.2,0.2C77,89.3,76,89,76.1,88.9c0-0.1,1,0.1,2.1,0.2C79.4,89.1,80.3,89.1,80.4,89.1
	L80.4,89.1z" />
	<path class="st2" d="M94.7,18.4c0.3,0.5,4.6,11.3,4.6,11.3l5.7,4.6l-2.8-0.1L97.3,31l-8.5-2.6v-1.4c0,0,4.3,1.5,8,1.8l-3.8-9.1
	L94.7,18.4L94.7,18.4z" />
	<path class="st8" d="M112.7,9.8c0,0-2.4-13-17.7-8.9C84.4,3.9,82.7,12.4,84.5,20.3s5.2,8.5,5.2,8.5s0.9,0.3,0.9-1s-1.4-1.2-1.7-2.1
	c-0.5-1.2-0.9-4.8,1.6-5.9c2.5-1.1,2.3,1.6,4.4,0.6c1-0.6,1.1-0.7,1.3-1.4c0.7-1.7-1-5.8,3.4-7.6c2.4-1,13-1.5,13-1.5L112.7,9.8z" />
	<g class="st7">
	<path d="M105,6.4c0.1,0.6,1,0.6,1.5,0.6c0.5,0,1-0.5,0.9-1c-0.1-0.6-0.8-0.9-1.3-0.9c-0.3,0-0.7,0.1-0.9,0.3
		C104.9,5.7,104.8,6.1,105,6.4" />
</g>
	<g class="st7">
	<path d="M91.8,14.8c0.1,0.6,1,0.6,1.5,0.6c0.5,0,1-0.5,0.9-1c-0.1-0.6-0.8-0.9-1.3-0.9c-0.3,0-0.7,0.1-0.9,0.3
		C91.8,14.1,91.7,14.5,91.8,14.8" />
</g>
	<g class="st7">
	<path d="M92.3,17.9c0.1,0.6,1,0.6,1.5,0.6c0.5,0,1-0.5,0.9-1c-0.1-0.6-0.8-0.9-1.3-0.9c-0.3,0-0.7,0.1-0.9,0.3
		C92.3,17.2,92.1,17.6,92.3,17.9" />
</g>
	<path class="st2" d="M94.4,9.2c0,0,0,0.2,0,0.6c0,0.3,0.2,0.9,0.6,1.3c0.2,0.2,0.5,0.4,0.9,0.4c0.3,0,0.7,0,1.1-0.2
	c0.3-0.2,0.7-0.5,0.8-0.9c0.1-0.4-0.1-0.9-0.4-0.9c-0.4,0-0.7,0.5-0.7,0.9c0,0.5,0.2,0.9,0.4,1.1c0.3,0.3,0.6,0.5,0.9,0.6
	c0.3,0.1,0.7,0.1,1,0.1c0.6-0.1,1-0.3,1.3-0.6c0.3-0.2,0.4-0.3,0.4-0.3s-0.1,0.2-0.4,0.4c-0.3,0.2-0.7,0.6-1.4,0.7
	c-0.3,0.1-0.7,0.1-1.1,0c-0.4-0.1-0.8-0.3-1-0.7c-0.3-0.3-0.5-0.8-0.5-1.4c0-0.3,0.1-0.5,0.3-0.7c0.2-0.2,0.4-0.4,0.7-0.4
	c0.3,0,0.6,0.2,0.7,0.5c0.1,0.3,0.1,0.6,0,0.8c-0.1,0.5-0.5,0.9-0.9,1.1c-0.4,0.2-0.8,0.3-1.2,0.2s-0.7-0.3-1-0.5
	c-0.5-0.5-0.5-1.1-0.5-1.5C94.4,9.5,94.4,9.3,94.4,9.2C94.4,9.1,94.5,9.1,94.4,9.2L94.4,9.2z" />
	<linearGradient id="SVGID_00000180353265599449753010000014717651497512472744_"
		gradientUnits="userSpaceOnUse" x1="41.7479" y1="31.7372" x2="169.261" y2="31.7372"
		gradientTransform="matrix(1 0 0 -1 0 220)">
	<stop offset="0" style="stop-color:#CC0022" />
		<stop offset="0.3" style="stop-color:#A2005A" />
		<stop offset="0.6" style="stop-color:#830082" />
		<stop offset="0.9" style="stop-color:#70009B" />
		<stop offset="1" style="stop-color:#6A00A5" />
</linearGradient>
	<path style="fill:url(#SVGID_00000180353265599449753010000014717651497512472744_);" d="M156.4,190l-0.3-2l-2,0.3l1.6-0.3l-0.4-2.7
	h0.1c0.1,0,0.2-0.2,0.2-0.3l-0.4-2.3c0-0.1-0.2-0.2-0.3-0.2l-0.7,0.1v-0.2c0,0,0-0.1-0.1-0.1l0.7-0.1c0.2,0,0.2-0.2,0.2-0.3
	l-0.2-1.2c0-0.2-0.2-0.2-0.3-0.2h0.4c0.3-0.1,0.4-0.4,0.4-0.6l-1.6-9.5l-0.2-0.9l-0.5-2.9c0-0.3-0.3-0.5-0.5-0.4h-0.2
	c0.4,0,0.6-0.4,0.5-0.8l-0.3-2c-0.1-0.4-0.4-0.6-0.8-0.6c0.4-0.1,0.6-0.5,0.5-0.9l-0.3-2c-0.1-0.4-0.4-0.6-0.8-0.6l-5.5,1
	c-0.4,0.1-0.6,0.5-0.5,0.9l0.3,2c0.1,0.4,0.4,0.6,0.8,0.6c-0.4,0.1-0.6,0.5-0.5,0.9l0.3,2c0.1,0.4,0.4,0.6,0.8,0.6h-0.2
	c-0.3,0.1-0.4,0.3-0.4,0.6l0.4,2.3l-27.4,30.2c-14,0-33.4,0-46.6,0c0,0-3.2-6.5-8.4-11.4c-6.7-2.2-11.8-0.5-15.4,2.2l-0.8-0.8
	c-0.3-0.3-0.7-0.2-1,0l-3.7,4.1c-0.3,0.3-0.2,0.7,0,1l0.7,0.6c-1.5,2.2-2.2,4-2.2,4h3.2c-0.2,1-0.4,2.1-0.4,3.2
	c0,7.4,5.8,13.5,13,13.5c7.2,0,9-2.7,11.2-6.6h59.7l8.2-5.8v-3.6c0-0.3-0.2-0.6-0.5-0.6h-7.3l19.2-21.1l0.3,2c0,0.3,0.3,0.5,0.5,0.4
	h0.4c-0.2,0-0.2,0.1-0.2,0.3l0.2,1.2c0,0.2,0.2,0.2,0.3,0.2l2.2-0.4c0,0,0,0.1,0,0.1v0.2l-0.5,0.1c-0.1,0-0.2,0.2-0.2,0.3l0.4,2.3
	c0,0.1,0.2,0.2,0.3,0.2h0.2l0.4,2.7h-0.4c0,0.1,0.3,2,0.3,2c-5.2,1.8-9,6.8-9,12.8c0,6,5.8,13.5,13,13.5c7.2,0,13-6,13-13.5
	C169.3,196.1,163.5,190.1,156.4,190L156.4,190z M57.1,208.5c-2.5,0-4.5-2.1-4.5-4.7s2-4.7,4.5-4.7c2.5,0,4.5,2.1,4.5,4.7
	S59.6,208.5,57.1,208.5z M156.2,208.6c-2.5,0-4.5-2.1-4.5-4.7c0-2.6,2-4.7,4.5-4.7s4.5,2.1,4.5,4.7
	C160.7,206.5,158.7,208.6,156.2,208.6z" />
	<linearGradient id="SVGID_00000021834729669223226010000005522912897435470524_"
		gradientUnits="userSpaceOnUse" x1="46.1756" y1="61.9325" x2="156.253" y2="61.9325"
		gradientTransform="matrix(1 0 0 -1 0 220)">
	<stop offset="0" style="stop-color:#CC0022" />
		<stop offset="0.3" style="stop-color:#A2005A" />
		<stop offset="0.6" style="stop-color:#830082" />
		<stop offset="0.9" style="stop-color:#70009B" />
		<stop offset="1" style="stop-color:#6A00A5" />
</linearGradient>
	<path style="fill:url(#SVGID_00000021834729669223226010000005522912897435470524_);" d="M150.6,155.9l-5.4,1
	c-0.4,0.1-0.6,0.5-0.6,0.9l0.3,2c0.1,0.4,0.4,0.7,0.8,0.6l5.4-1c0.4-0.1,0.6-0.5,0.6-0.9l-0.3-2C151.3,156.1,151,155.8,150.6,155.9z
	" />
</svg>
