<?xml version="1.0" encoding="utf-8"?><!-- Generator: Adobe Illustrator 27.0.0, SVG Export Plug-In . SVG Version: 6.00 Build 0)  -->
<svg version="1.1" id="Layer_1" xmlns="http://www.w3.org/2000/svg"
    xmlns:xlink="http://www.w3.org/1999/xlink" x="0px" y="0px" viewBox="0 0 606.9 1000"
    style="enable-background:new 0 0 606.9 1000;" xml:space="preserve">
<style type="text/css">
	.st0{opacity:0.6;}
	.st1{fill:#151314;}
	.st2{fill:#0A0F14;}
	.st3{clip-path:url(#SVGID_00000125574708407404754410000014074089392869825427_);}
	.st4{fill:url(#SVGID_00000128465054546647023480000013390487851175502470_);}
	.st5{fill:url(#SVGID_00000031189361558078934590000015863311541953680017_);}
	.st6{fill:url(#SVGID_00000001663790303339901030000013316890107818650805_);}
	.st7{fill:url(#SVGID_00000067951422269035169730000006992098032338018980_);}
	.st8{fill:url(#SVGID_00000013184012378267179850000003636290273435951748_);}
	.st9{fill:#FFFFFF;}
	.st10{fill:url(#SVGID_00000080893503285727346330000000237245575564811959_);}
</style>
    <g class="st0">
	<path class="st1" d="M537.1,220.8V76.1c0-37.5-30.4-67.7-67.7-67.7H146c-37.5,0-67.7,30.5-67.7,67.7v55.5h-0.5
		c-2.4,0-4.3,1.9-4.3,4.4v26.7c0,2.4,1.9,4.4,4.3,4.4h0.5v32.6c-2.7,0-4.9,2.2-4.9,4.9v56c0,2.7,2.2,4.9,4.9,4.9v18.8
		c-2.7,0-4.9,2.2-4.9,4.9v56c0,2.7,2.2,4.9,4.9,4.9v523.8c0,37.5,30.4,67.7,67.7,67.7h323.4c37.5,0,67.7-30.5,67.7-67.7v-545
		c2.7,0,4.9-2.2,4.9-4.9v-98.7c0-2.7-2.2-4.9-4.9-4.9V220.8z" />
</g>
    <rect x="74" y="25.6" class="st2" width="426.6" height="878.4" />
    <g>
	<defs>
		<rect id="SVGID_1_" x="181" y="386.9" width="207.5" height="77.4" />
	</defs>
        <clipPath id="SVGID_00000095298954270832340870000000765376546184832675_">
		<use xlink:href="#SVGID_1_" style="overflow:visible;" />
	</clipPath>
        <g style="clip-path:url(#SVGID_00000095298954270832340870000000765376546184832675_);">
		
			<linearGradient id="SVGID_00000145772152438683675540000005276897993185196458_"
                gradientUnits="userSpaceOnUse" x1="182.9747" y1="629.8181" x2="392.3276"
                y2="629.8181" gradientTransform="matrix(1 0 0 -1 0 1076.4564)">
			<stop offset="0" style="stop-color:#F1001C" />
                <stop offset="7.000000e-02" style="stop-color:#E60028" />
                <stop offset="0.38" style="stop-color:#B90060" />
                <stop offset="0.66" style="stop-color:#970088" />
                <stop offset="0.87" style="stop-color:#8300A1" />
                <stop offset="1" style="stop-color:#7C00AB" />
		</linearGradient>
            <path style="fill:url(#SVGID_00000145772152438683675540000005276897993185196458_);"
                d="M212.9,429.1H208v35h4.9V429.1z" />

            <linearGradient id="SVGID_00000152982816062958176380000008475639774858126518_"
                gradientUnits="userSpaceOnUse" x1="180.9981" y1="642.3368" x2="388.4716"
                y2="642.3368" gradientTransform="matrix(1 0 0 -1 0 1076.4564)">
			<stop offset="0" style="stop-color:#F1001C" />
                <stop offset="7.000000e-02" style="stop-color:#E60028" />
                <stop offset="0.38" style="stop-color:#B90060" />
                <stop offset="0.66" style="stop-color:#970088" />
                <stop offset="0.87" style="stop-color:#8300A1" />
                <stop offset="1" style="stop-color:#7C00AB" />
		</linearGradient>
            <path style="fill:url(#SVGID_00000152982816062958176380000008475639774858126518_);" d="M199,406.4c-3.5,1.6-6.7,3.7-9.3,6.5
			c-2.7,2.7-4.8,5.9-6.3,9.6c-1.5,3.6-2.3,7.5-2.3,11.7v30h4.9v-30c0-3.4,0.6-6.7,1.9-9.7c1.3-3,3-5.7,5.3-8
			c2.2-2.3,4.8-4.1,7.8-5.4c3-1.3,6.1-2,9.5-2c3.4,0,6.5,0.7,9.5,2c3,1.3,5.6,3.1,7.7,5.4c2.2,2.3,3.9,4.9,5.2,8
			c1.3,3,1.9,6.3,1.9,9.7v30h4.9v-30c0-4.2-0.8-8.1-2.3-11.7c-1.5-3.6-3.6-6.8-6.3-9.6c-2.7-2.7-5.8-4.9-9.3-6.5
			c-3.6-1.6-7.4-2.4-11.4-2.4C206.4,404.1,202.5,404.9,199,406.4z" />

            <linearGradient id="SVGID_00000000943574264470880150000001588086957915850377_"
                gradientUnits="userSpaceOnUse" x1="183.0038" y1="650.4019" x2="388.4251"
                y2="651.0956" gradientTransform="matrix(1 0 0 -1 0 1076.4564)">
			<stop offset="0" style="stop-color:#F1001C" />
                <stop offset="7.000000e-02" style="stop-color:#E60028" />
                <stop offset="0.38" style="stop-color:#B90060" />
                <stop offset="0.66" style="stop-color:#970088" />
                <stop offset="0.87" style="stop-color:#8300A1" />
                <stop offset="1" style="stop-color:#7C00AB" />
		</linearGradient>
            <path style="fill:url(#SVGID_00000000943574264470880150000001588086957915850377_);" d="M336.7,457.1c-3-1.3-5.6-3.1-7.8-5.4
			c-2.2-2.3-4-4.9-5.3-7.9c-1.3-3-1.9-6.3-1.9-9.7c0-3.4,0.6-6.7,1.9-9.7c1.3-3,3.1-5.7,5.3-7.9c2.2-2.2,4.8-4,7.8-5.3
			c3-1.3,6.2-2,9.5-2c3.4,0,6.5,0.7,9.5,2c3,1.3,5.6,3.1,7.8,5.3c2.2,2.2,3.9,4.9,5.2,7.9c1.3,3,1.9,6.3,1.9,9.7
			c0,3.4-0.6,6.7-1.9,9.7c-1.3,3-3,5.7-5.2,7.9c-2.2,2.3-4.8,4.1-7.8,5.4c-3,1.3-6.2,2-9.5,2C342.9,459.1,339.7,458.5,336.7,457.1z
			 M316.8,386.9v47.1c0,4.4,0.9,8.7,2.7,12.7c0.1,0.2,0.2,0.4,0.3,0.6c1.7,3.4,3.8,6.3,6.4,8.8c2.6,2.5,5.6,4.4,9,5.9
			c3.4,1.4,7.1,2.1,10.9,2.1c4.1,0,7.9-0.8,11.5-2.4c3.6-1.6,6.7-3.7,9.3-6.5c2.7-2.7,4.8-5.9,6.3-9.5c1.5-3.6,2.3-7.5,2.3-11.7
			c0-4.2-0.8-8.1-2.3-11.7c-1.5-3.6-3.6-6.8-6.3-9.5c-2.7-2.7-5.8-4.8-9.3-6.4c-3.6-1.6-7.4-2.4-11.5-2.4c-5.2,0-9.9,1.2-14.2,3.6
			c-3.9,2.2-7.1,5.1-9.6,8.6c-0.2,0.3-0.8,0.2-0.8-0.2v-29.3H316.8L316.8,386.9z" />

            <linearGradient id="SVGID_00000080912474766887020730000003512427160292890035_"
                gradientUnits="userSpaceOnUse" x1="181.2121" y1="642.3353" x2="384.6807"
                y2="642.3353" gradientTransform="matrix(1 0 0 -1 0 1076.4564)">
			<stop offset="0" style="stop-color:#F1001C" />
                <stop offset="8.000000e-02" style="stop-color:#E60028" />
                <stop offset="0.52" style="stop-color:#AD006E" />
                <stop offset="0.84" style="stop-color:#89009A" />
                <stop offset="1" style="stop-color:#7C00AB" />
		</linearGradient>
            <path style="fill:url(#SVGID_00000080912474766887020730000003512427160292890035_);"
                d="M388.5,404.1h-4.9v60.1h4.9V404.1z" />

            <linearGradient id="SVGID_00000124130415282346725740000002076872608240445351_"
                gradientUnits="userSpaceOnUse" x1="184.6258" y1="642.2253" x2="395.2018"
                y2="642.2253" gradientTransform="matrix(1 0 0 -1 0 1076.4564)">
			<stop offset="0" style="stop-color:#F1001C" />
                <stop offset="0.11" style="stop-color:#E1002E" />
                <stop offset="0.54" style="stop-color:#AB0071" />
                <stop offset="0.84" style="stop-color:#89009B" />
                <stop offset="1" style="stop-color:#7C00AB" />
		</linearGradient>
            <path style="fill:url(#SVGID_00000124130415282346725740000002076872608240445351_);" d="M305.7,422.5c-1.5-3.7-3.6-6.9-6.3-9.6
			c-2.7-2.7-5.8-4.9-9.3-6.5c-3.6-1.6-7.4-2.4-11.4-2.4c-4.1,0-7.9,0.8-11.4,2.4c-3.6,1.6-6.7,3.7-9.3,6.5c-2.7,2.7-4.8,5.9-6.3,9.6
			c-1.5,3.7-2.3,7.6-2.3,11.7c0,4.2,0.8,8.1,2.3,11.7c1.5,3.7,3.6,6.9,6.3,9.6c2.7,2.7,5.8,4.9,9.3,6.5c3.6,1.6,7.4,2.4,11.4,2.4
			c4.1,0,7.9-0.8,11.4-2.4c3.6-1.6,6.7-3.7,9.3-6.5c2.7-2.7,4.8-5.9,6.3-9.6c1.5-3.7,2.3-7.6,2.3-11.7
			C308,430.1,307.3,426.2,305.7,422.5z M301.2,444c-1.3,3.1-3,5.7-5.2,8c-2.2,2.3-4.8,4.1-7.8,5.4c-3,1.3-6.2,2-9.5,2
			c-3.3,0-6.5-0.7-9.5-2c-3-1.3-5.6-3.1-7.8-5.4c-2.2-2.3-3.9-4.9-5.2-8c-1.3-3.1-1.9-6.3-1.9-9.8c0-3.4,0.6-6.7,1.9-9.8
			c1.3-3.1,3-5.7,5.2-8c2.2-2.3,4.8-4.1,7.8-5.4c3-1.3,6.2-2,9.5-2c3.3,0,6.5,0.7,9.5,2c3,1.3,5.6,3.1,7.8,5.4
			c2.2,2.3,3.9,4.9,5.2,8c1.3,3.1,1.9,6.3,1.9,9.8C303.1,437.7,302.5,440.9,301.2,444z" />
	</g>
</g>
    <path class="st2" d="M520.2,67.7c0-37.5-30.4-67.7-67.7-67.7H129.5C92,0,61.8,30.5,61.8,67.7v798.2c0,37.5,30.4,67.7,67.7,67.7
	h323.4c37.5,0,67.7-30.5,67.7-67.7V67.7H520.2z M509.9,865.4c0,32.1-26.1,57.9-57.9,57.9H128.7c-32.1,0-57.9-26.1-57.9-57.9V67.2
	c0-32.1,26.1-57.9,57.9-57.9H452c32.1,0,57.9,26.1,57.9,57.9V865.4z" />
    <path d="M61.6,79.5h-0.4c-1.6,0-2.8,1.2-2.8,2.8v17.2c0,1.6,1.2,2.8,2.8,2.8h0.4" />
    <path d="M520.2,321.2c2.7,0,4.9-2.2,4.9-4.9v-98.7c0-2.7-2.2-4.9-4.9-4.9" />
    <path d="M61.6,123.4c-1.8,0-3.2,1.4-3.2,3.2v36.2c0,1.8,1.4,3.2,3.2,3.2" />
    <path d="M61.6,178.1c-1.8,0-3.2,1.4-3.2,3.2v36.2c0,1.8,1.4,3.2,3.2,3.2" />
    <path d="M509.9,67.2c0-32.1-26.1-57.9-57.9-57.9H128.7c-32.1,0-57.9,26.1-57.9,57.9v798.2c0,32.1,26.1,57.9,57.9,57.9H452
	c32.1,0,57.9-26.1,57.9-57.9V67.2z M344.7,31.8c0,3.3-2.4,5.7-5.7,5.7s-5.7-2.4-5.7-5.7c0-3.3,2.4-5.7,5.7-5.7
	S344.7,28.6,344.7,31.8z M267.2,28.6h50.8c2.2,0,3.8,1.4,3.8,3.3c0,1.9-1.6,3.3-3.8,3.3h-50.8c-2.2,0-3.8-1.4-3.8-3.3
	C263.4,29.9,265.1,28.6,267.2,28.6z M495.8,863.7c0,22.6-19,40-41.6,40H130.3c-22.8,0-40.2-17.4-40.2-40V66.1
	c0-22.8,17.4-41.6,40.2-41.6h37.5c7.9,0,10.9,0,11.4,10.1c0.5,10.3,7.6,16,17.4,19c3.3,1.1,7.1,0.8,10.3,0.8h170.9
	c3.5,0,7.1,0.5,10.3-0.5c9.8-3,16.8-9.2,17.4-19.6c0.5-10.1,3.5-9.8,11.4-9.8h37c22.8,0,41.6,18.8,41.6,41.6v797.7H495.8z" />
    <path class="st9" d="M333.3,31.8c0,3.3,2.4,5.7,5.7,5.7c3.3,0,5.7-2.4,5.7-5.7c0-3.3-2.4-5.7-5.7-5.7
	C335.7,26.1,333.3,28.6,333.3,31.8z" />
    <path class="st9" d="M267.2,35.1h50.8c2.2,0,3.8-1.4,3.8-3.3c0-1.9-1.6-3.3-3.8-3.3h-50.8c-2.2,0-3.8,1.4-3.8,3.3
	C263.4,33.7,265.1,35.1,267.2,35.1z" />
    <path class="st9" d="M120.4,50.7c-0.8,0-1.5-0.2-2.1-0.6c-0.6-0.4-1.1-1-1.4-1.8c-0.3-0.8-0.5-1.7-0.5-2.8s0.2-2,0.5-2.8
	c0.3-0.8,0.8-1.4,1.4-1.8c0.6-0.4,1.3-0.6,2.1-0.6c0.8,0,1.5,0.2,2.1,0.6c0.6,0.4,1.1,1,1.4,1.8c0.4,0.8,0.5,1.7,0.5,2.8
	s-0.2,2-0.5,2.8c-0.3,0.8-0.8,1.4-1.4,1.8C121.9,50.5,121.2,50.7,120.4,50.7z M120.4,49.7c0.6,0,1.1-0.2,1.6-0.5
	c0.4-0.3,0.8-0.8,1-1.4c0.3-0.6,0.4-1.4,0.4-2.3c0-0.9-0.1-1.7-0.4-2.3c-0.3-0.6-0.6-1.1-1-1.4c-0.4-0.3-1-0.5-1.6-0.5
	c-0.6,0-1.1,0.2-1.6,0.5c-0.5,0.3-0.8,0.8-1.1,1.4c-0.3,0.6-0.4,1.4-0.4,2.3c0,0.9,0.1,1.7,0.4,2.3c0.3,0.6,0.6,1.1,1.1,1.4
	C119.3,49.5,119.8,49.7,120.4,49.7z M129.9,50.7c-0.8,0-1.5-0.1-2.1-0.3c-0.6-0.2-1-0.6-1.4-1c-0.3-0.4-0.5-1-0.5-1.6
	c0-0.6,0.2-1.1,0.5-1.5c0.3-0.4,0.8-0.7,1.3-1c0.6-0.2,1.3-0.3,2.1-0.3c0.8,0,1.5,0.1,2.1,0.3s1,0.5,1.4,1c0.3,0.4,0.5,0.9,0.5,1.5
	c0,0.6-0.2,1.1-0.5,1.6c-0.3,0.4-0.8,0.8-1.4,1C131.4,50.5,130.7,50.7,129.9,50.7z M129.9,49.8c0.9,0,1.6-0.2,2.1-0.6
	c0.5-0.4,0.8-0.9,0.8-1.5s-0.3-1.1-0.8-1.5c-0.5-0.4-1.2-0.6-2.1-0.6c-0.9,0-1.6,0.2-2.1,0.6c-0.5,0.4-0.8,0.9-0.8,1.5
	s0.3,1.1,0.8,1.5C128.3,49.6,129,49.8,129.9,49.8z M129.9,45.5c-0.8,0-1.4-0.1-1.9-0.3c-0.5-0.2-0.9-0.5-1.2-0.9
	c-0.3-0.4-0.4-0.8-0.4-1.4c0-0.6,0.1-1,0.4-1.4c0.3-0.4,0.7-0.7,1.3-0.9c0.5-0.2,1.2-0.3,1.9-0.3c0.7,0,1.3,0.1,1.9,0.3
	c0.5,0.2,1,0.5,1.3,0.9c0.3,0.4,0.5,0.9,0.5,1.4c0,0.5-0.1,1-0.4,1.4c-0.3,0.4-0.7,0.7-1.2,0.9C131.3,45.4,130.6,45.5,129.9,45.5z
	 M129.9,44.8c0.8,0,1.4-0.2,1.9-0.5s0.7-0.8,0.7-1.3c0-0.6-0.2-1-0.7-1.4c-0.5-0.3-1.1-0.5-1.8-0.5c-0.8,0-1.4,0.2-1.8,0.5
	c-0.5,0.3-0.7,0.8-0.7,1.3c0,0.6,0.2,1,0.7,1.3C128.5,44.7,129.1,44.8,129.9,44.8z M136.2,50.6c-0.2,0-0.4-0.1-0.6-0.2
	c-0.1-0.2-0.2-0.3-0.2-0.6c0-0.2,0.1-0.4,0.2-0.6c0.2-0.1,0.3-0.2,0.6-0.2c0.2,0,0.4,0.1,0.5,0.2c0.2,0.1,0.2,0.3,0.2,0.6
	c0,0.2-0.1,0.4-0.2,0.6C136.6,50.6,136.4,50.6,136.2,50.6z M142.4,50.7c-0.8,0-1.5-0.2-2.1-0.6c-0.6-0.4-1.1-1-1.4-1.8
	c-0.3-0.8-0.5-1.7-0.5-2.8s0.2-2,0.5-2.8c0.3-0.8,0.8-1.4,1.4-1.8c0.6-0.4,1.3-0.6,2.1-0.6s1.5,0.2,2.1,0.6c0.6,0.4,1.1,1,1.4,1.8
	c0.4,0.8,0.5,1.7,0.5,2.8s-0.2,2-0.5,2.8c-0.3,0.8-0.8,1.4-1.4,1.8C143.9,50.5,143.2,50.7,142.4,50.7z M142.4,49.7
	c0.6,0,1.1-0.2,1.6-0.5c0.4-0.3,0.8-0.8,1-1.4c0.3-0.6,0.4-1.4,0.4-2.3c0-0.9-0.1-1.7-0.4-2.3c-0.3-0.6-0.6-1.1-1-1.4
	c-0.4-0.3-1-0.5-1.6-0.5c-0.6,0-1.1,0.2-1.6,0.5c-0.5,0.3-0.8,0.8-1.1,1.4c-0.3,0.6-0.4,1.4-0.4,2.3c0,0.9,0.1,1.7,0.4,2.3
	c0.3,0.6,0.6,1.1,1.1,1.4C141.3,49.5,141.8,49.7,142.4,49.7z M120.4,69.2c-0.8,0-1.5-0.2-2.1-0.6c-0.6-0.4-1.1-1-1.4-1.8
	c-0.3-0.8-0.5-1.7-0.5-2.8c0-1.1,0.2-2,0.5-2.8c0.3-0.8,0.8-1.4,1.4-1.8c0.6-0.4,1.3-0.6,2.1-0.6c0.8,0,1.5,0.2,2.1,0.6
	c0.6,0.4,1.1,1,1.4,1.8c0.4,0.8,0.5,1.7,0.5,2.8c0,1.1-0.2,2-0.5,2.8c-0.3,0.8-0.8,1.4-1.4,1.8C121.9,69,121.2,69.2,120.4,69.2z
	 M120.4,68.3c0.6,0,1.1-0.2,1.6-0.5c0.4-0.3,0.8-0.8,1-1.4c0.3-0.6,0.4-1.4,0.4-2.3c0-0.9-0.1-1.7-0.4-2.3c-0.3-0.6-0.6-1.1-1-1.4
	c-0.4-0.3-1-0.5-1.6-0.5c-0.6,0-1.1,0.2-1.6,0.5c-0.5,0.3-0.8,0.8-1.1,1.4c-0.3,0.6-0.4,1.4-0.4,2.3c0,0.9,0.1,1.7,0.4,2.3
	c0.3,0.6,0.6,1.1,1.1,1.4C119.3,68.1,119.8,68.3,120.4,68.3z" />
    <path class="st9" d="M452.6,40.8h-3v7.1h3V40.8z" />
    <path class="st9" d="M456.7,40.8h-3v7.1h3V40.8z" />
    <path class="st9" d="M460.7,40.8h-3v7.1h3V40.8z" />
    <path class="st9" d="M464.5,40.8h-3v7.1h3V40.8z" />
    <path class="st9" d="M467.3,42.2h-1.6v4.4h1.6V42.2z" />
    <path class="st9" d="M430.8,46.8c-0.8,0-1.4,0.5-1.4,1.4c0,0.8,0.5,1.4,1.4,1.4c0.8,0,1.4-0.5,1.4-1.4
	C432.2,47.3,431.7,46.8,430.8,46.8z" />
    <path class="st9" d="M434.6,44.1c-1.1-0.8-2.4-1.1-3.8-1.1c-1.4,0-2.7,0.5-3.8,1.1c-0.5,0.3-0.5,1.1,0,1.6c0.3,0.3,0.8,0.3,1.4,0
	c0.8-0.5,1.6-0.8,2.7-0.8c1.1,0,1.9,0.3,2.7,0.8c0.3,0.3,0.8,0,1.4,0c0.5-0.5,0.3-1.1,0-1.6H434.6z" />
    <path class="st9" d="M437.4,41.1c-1.9-1.4-4.1-2.4-6.8-2.4s-4.9,0.8-6.8,2.4c-0.5,0.3-0.5,1.1,0,1.6c0.3,0.3,1.1,0.3,1.4,0
	c1.4-1.1,3.3-1.9,5.4-1.9s3.8,0.8,5.4,1.9c0.5,0.3,1.1,0.3,1.4,0C437.9,42.2,437.6,41.6,437.4,41.1z" />
    <path d="M354.2,887.1H233.8c-3.5,0-6.5-3-6.5-6.5c0-3.5,3-6.5,6.5-6.5h120.4c3.5,0,6.5,3,6.5,6.5
	C360.7,884.1,357.7,887.1,354.2,887.1z" />
    <linearGradient id="SVGID_00000062162102171771205860000001834947610936226706_"
        gradientUnits="userSpaceOnUse" x1="218.5429" y1="269.8944" x2="606.9274" y2="269.8944"
        gradientTransform="matrix(1 0 0 -1 0 1076.4564)">
	<stop offset="0" style="stop-color:#E4002B" />
        <stop offset="1" style="stop-color:#7200A6" />
</linearGradient>
    <path style="fill:url(#SVGID_00000062162102171771205860000001834947610936226706_);" d="M606.5,885c0,0,0-1,0-1.5l-41.1-154.3
	c-4-15-17.6-25.5-33.1-25.5h-73.8c-6.3,0-11.4,5.1-11.4,11.4s5.1,11.4,11.4,11.4h73.8c5.1,0,9.7,3.4,11.1,8.4l37.4,139.9h-80.9
	c-8.7,0-16.6,4.8-20.4,12.7L466,914.3c-1.9,3.9-5.8,6.3-10.2,6.3h-86c-4.3,0-8.2-2.4-10.2-6.3l-13.4-26.7
	c-3.9-7.8-11.8-12.7-20.4-12.7h-81.1L282.1,735c1.4-5,5.8-8.4,11.1-8.4h73.8c6.3,0,11.4-5.1,11.4-11.4s-5.1-11.4-11.4-11.4h-73.8
	c-15.5,0-29.1,10.5-33.1,25.5l-41.1,154.3c0,0,0,1,0,1.5c0,0.5-0.3,0.9-0.3,1.5v79.9c0,18.8,15.4,34.2,34.3,34.2h319.8
	c18.8,0,34.3-15.4,34.3-34.2v-79.9c0,0-0.2-0.9-0.3-1.5H606.5z M584,966.4c0,6.3-5.1,11.4-11.4,11.4H252.7
	c-6.3,0-11.4-5.1-11.4-11.4v-68.5h84.3l13.4,26.7c5.8,11.6,17.6,18.9,30.6,18.9h86c13,0,24.8-7.3,30.6-18.9l13.4-26.7h84.3v68.5H584
	z M401.2,842.5V623.9c0-6.3,5.1-11.4,11.4-11.4c6.3,0,11.4,5.1,11.4,11.4v218.6l25.4-31.6c3.9-4.9,11.2-5.7,16.1-1.8
	c4.9,4,5.7,11.1,1.8,16.1l-45.7,57.1c0,0-0.3,0.2-0.5,0.3c-0.3,0.3-0.6,0.7-0.9,0.9c-0.1,0.1-0.2,0.3-0.5,0.5
	c-0.5,0.3-1,0.6-1.6,0.9c-0.3,0.2-0.6,0.5-0.9,0.6c-0.2,0-0.3,0.1-0.6,0.2c-1.4,0.5-2.7,0.8-4.1,0.8c-1.4,0-2.7-0.3-4.1-0.8
	c-0.2,0-0.3-0.1-0.6-0.2c-0.3-0.1-0.6-0.5-0.9-0.6c-0.6-0.3-1-0.5-1.6-0.9c-0.1-0.1-0.2-0.3-0.5-0.5c-0.3-0.3-0.7-0.6-0.9-0.9
	c-0.1-0.1-0.3-0.2-0.5-0.3l-45.7-57.1c-4-4.9-3.2-12.1,1.8-16.1c4.9-3.9,12.1-3.2,16.1,1.8L401.2,842.5z" />
    <image style="overflow:visible;" width="515" height="1083"
        xlink:href="../../../../../Downloads/paso 2.png"
        transform="matrix(0.921 0 0 0.921 752.5946 0)">
</image>
    <image style="overflow:visible;" width="1949" height="1309"
        xlink:href="../../../../../Downloads/.png"
        transform="matrix(0.5143 0 0 0.5143 2282.8408 163.4143)">
</image>
    <image style="overflow:visible;" width="818" height="919"
        xlink:href="../../../../../Downloads/newnew.png"
        transform="matrix(1.0818 0 0 1.0818 1297.3361 2.9026)">
</image>
</svg>
